/* XPM */
static char *_e26902141dc40489b7390c9e374095c5MQPQhFKUGxI3dAF[] = {
/* columns rows colors chars-per-pixel */
"50 50 3 1 ",
"  c #1B171B",
". c #0F0B0D",
"X c #141114",
/* pixels */
"                                                  ",
" ................................................ ",
" .         .            .            .         X. ",
" .         .            .            .         X. ",
" .         .            .            .         X. ",
" .         .            .            .         X. ",
" .         .            .            .         X. ",
" ................................................ ",
" .  X.X          X.X           XX           X.XX. ",
" .   .            .                          . X. ",
" .   .            .                          . X. ",
" .   .            .                          . X. ",
" ................................................ ",
" .           X.X           .X           X.     X. ",
" .            .            .             .     X. ",
" .            .            .             .     X. ",
" .            .            .             .     X. ",
" ................................................ ",
" .       X.X          X.X           XX         X. ",
" .        .            .                       X. ",
" .        .            .                       X. ",
" .        .            .                       X. ",
" ................................................ ",
" .         XX            .X          X.X       X. ",
" .                       .            .        X. ",
" .                       .            .        X. ",
" .                       .            .        X. ",
" ................................................ ",
" . X.X           .X           X.           X.X X. ",
" .  .            .             .            .  X. ",
" .  .            .             .            .  X. ",
" .  .            .             .            .  X. ",
" ................................................ ",
" .          X           X.X           .X       X. ",
" .                       .            .        X. ",
" .                       .            .        X. ",
" .                       .            .        X. ",
" ................................................ ",
" .     .X           X.           X.X           X. ",
" .     .             .            .            X. ",
" .     .             .            .            X. ",
" .     .             .            .            X. ",
" ................................................ ",
" .            X.X          X.X           XX    X. ",
" .             .            .                  X. ",
" .             .            .                  X. ",
" .             .            .                  X. ",
" ................................................ ",
"                                                  ",
"                                                  "
};
