/* XPM */
static char *result[] = {
/* columns rows colors chars-per-pixel */
"50 50 77 1 ",
"  c #1B171B",
". c #181418",
"X c #090809",
"o c #0F0B0D",
"O c #0C090B",
"+ c black",
"@ c #161316",
"# c #141114",
"$ c #0D0B0D",
"% c #070506",
"& c #201A12",
"* c #806227",
"= c #120F12",
"- c #2B210D",
"; c #FFC34D",
": c #282014",
"> c #55411A",
", c #6F521F",
"< c #F2AA3B",
"1 c #F9B644",
"2 c #D97716",
"3 c #0A080A",
"4 c #0A0709",
"5 c #342816",
"6 c #8E6C2B",
"7 c #FBBB47",
"8 c #F0A538",
"9 c #E69028",
"0 c #DF841F",
"q c #FDBF4A",
"w c #E58E27",
"e c #FFC451",
"r c #FFCB62",
"t c #F4B34C",
"y c #FFC654",
"u c #FFF3CC",
"i c #FFE3A2",
"p c #FFD377",
"a c #926B28",
"s c #EA992E",
"d c #FFEBB7",
"f c #FEC14B",
"g c #FFDE94",
"h c #FFD67E",
"j c #957638",
"k c #110E11",
"l c #EC9D32",
"z c #FFDB8D",
"x c #FFECBA",
"c c #FFCA5F",
"v c #E5902A",
"b c #F4AE3E",
"n c #FFC85B",
"m c #FBC86A",
"M c #DB7B19",
"N c #EEA135",
"B c #46361A",
"V c #B67F2C",
"C c #FFC758",
"Z c #BF9E5A",
"A c #F7B241",
"S c #EEA743",
"D c #FFD070",
"F c #FFCE69",
"G c #5A451E",
"H c #AA8233",
"J c #C6983C",
"K c #FFE09B",
"L c #100D10",
"P c #040404",
"I c #4A3918",
"U c #D5A340",
"Y c #DCAF54",
"T c gray1",
"R c #131113",
"E c #251C0C",
"W c #271E0E",
/* pixels */
"               .XXXXXXXXXXXXXXXXXX.               ",
" ooooooooooooooO++++++++++++++++++Ooooooooooooooo ",
" o         o   @++++++++++++++++++@  o         #o ",
" o       @$%$$$&******************&$$%$$@      #o ",
" o       =+++++-;;;;;;;;;;;;;;;;;;-+++++=      #o ",
" o       =+++++-;;;;;;;;;;;;;;;;;;-+++++=      #o ",
" o    @==:>>>>>,<<<<<<<<<<<<<<<<<<,>>>>>:==@   #o ",
" ooooo%++>;;;;;12222222222222222221;;;;;>++%ooooo ",
" o  #o3++>;;;;;12222222222222222221;;;;;>++$#o##o ",
" o @=45>>6;;7<<89999999999999999998<<7;;6>>5=4@#o ",
" o $++*;;;;;<220;;;;;;;;;;;;;;;;;;022<;;;;;*++$#o ",
" o $++*;;;;;<220;;;;;;;;;;;;;;;;;;022<;;;;;*++$#o ",
" oo%++*;;q11800w;;errrrrrrrr;;;;;;w00trry;;*++%oo ",
" o $++*;;<229;;;;;ruuuuuuuuu;;;;;;;;;iuup;;*++$#o ",
" o $++*;;<229;;;;;ruuuuuuuuu;;;;;;;;;iuup;;*++$#o ",
".O@&--a11800s;;;;;ruuudddddd111f;;;;;gddhrrj--&kO.",
"X++*;;l229;;;;;;;;ruuu;;;;;;2221;;;;;;;;iuuz;;*++X",
"X++*;;l229;;;;;;;;ruuu;;;;;;2221;;;;;;;;iuuz;;*++X",
"X++*;;l229;;;;;;;;ruuu;;;;;;2221;;;;;;;;iuuz;;*++X",
"X++*;;l229;;puuuuuuuuu;;;;;;;;;duur;;;;;iuuz;;*++X",
"X++*;;l229;;puuuuuuuuu;;;;;;;;;duur;;;;;iuuz;;*++X",
"X++*;;l229;;puuuuuuuuu;;;;;;;;;duur;;;;;iuuz;;*++X",
"X++*;;l229;;puuxrrrrrr;;;;;;;;;crrv00b;;iuuz;;*++X",
"X++*;;l229;;puud;;;;;;;;;;;;;;;;;;022<;;iuuz;;*++X",
"X++*;;l229;;puud;;;;;;;;;;;;;;;;;;022<;;iuuz;;*++X",
"X++*;;l229;;puud;;;;;;;;;;;;;;;;;;022<;;iuuz;;*++X",
"X++*;;l229;;puud;;;;;;;;;;;;;;;;;;022<;;iuuz;;*++X",
"X++*;;l229;;puud;;;;;;;;;;;;;;;;;;022<;;iuuz;;*++X",
"X++*;;l229;;nppm99s;;;;;;;;;999999M22<;;iuuz;;*++X",
"X++*;;l229;;;;;1220;;;;;;;;;222222222<;;iuuz;;*++X",
"X++*;;l229;;;;;1220;;;;;;;;;222222222<;;iuuz;;*++X",
"X++*;;l229;;;;;q<<tiii;;;;;;222N<<<<<7;;iuuz;;*++X",
"X++*;;l229;;;;;;;;ruuu;;;;;;2221;;;;;;;;iuuz;;*++X",
"X++*;;l229;;;;;;;;ruuu;;;;;;2221;;;;;;;;iuuz;;*++X",
"=%$B**Vlllll<;;;;;Czzzllllll2221;;;;;pzzzzzZ**B3%=",
" o $++*;;<229;;;;;;;;;2222222221;;;;;iuup;;*++$#o ",
" o $++*;;<229;;;;;;;;;2222222221;;;;;iuup;;*++$#o ",
" oo%++*;;A99SppD;;;;;;9999999997;;DppgiiF;;*++%oo ",
" o $++*;;;;;puud;;;;;;;;;;;;;;;;;;duup;;;;;*++$#o ",
" o $++*;;;;;puud;;;;;;;;;;;;;;;;;;duup;;;;;*++$#o ",
" o =XXGHHJ;;FiiKppppppppppppppppppKiiF;;JHHGXX=#o ",
" o    $++>;;;;;ruuuuuuuuuuuuuuuuuur;;;;;>++$   #o ",
" ooooo%++>;;;;;ruuuuuuuuuuuuuuuuuur;;;;;>++%ooooo ",
" o    LPPIUUUUUYddddddddddddddddddYUUUUUITTL   #o ",
" o       =+++++-;;;;;;;;;;;;;;;;;;-+++++=      #o ",
" o       =+++++-;;;;;;;;;;;;;;;;;;-+++++=      #o ",
" o       RPPPPPEUUUUUUUUUUUUUUUUUUWPPPPPR      #o ",
" ooooooooooooooO++++++++++++++++++Ooooooooooooooo ",
"               @++++++++++++++++++@               ",
"               @++++++++++++++++++@               "
};
