/* XPM */
static char *result[] = {
/* columns rows colors chars-per-pixel */
"50 50 6 1 ",
"  c #1B171B",
". c black",
"X c #0F0B0D",
"o c #141114",
"O c #FFC34D",
"+ c #D97716",
/* pixels */
"                   .............                  ",
" XXXXXXXXXXXXXXXXXX.............XXXXXXXXXXXXXXXXX ",
" X         X       .............     X         oX ",
" X         X       .............     X         oX ",
" X         X       ...OOOOOOO...     X         oX ",
" X         X       ...OOOOOOO...     X         oX ",
" X         X       ...OOOOOOO...     X         oX ",
" XXXXXXXXXXXXXXXXXX...OOOOOOO...XXXXXXXXXXXXXXXXX ",
" X  oXo          oX...OOOOOOO...o           oXooX ",
" X   X            X...OOOOOOO...             X oX ",
" X   X            X...OOOOOOO...             X oX ",
" X   X            X...OOOOOOO...             X oX ",
" XXXXXXXXXXXXXXXXXX...OOOOOOO...XXXXXXXXXXXXXXXXX ",
" X           oXo   ...OOOOOOO...        oX     oX ",
" X            X    ...OOOOOOO...         X     oX ",
" X            X    ...OOOOOOO...         X     oX ",
" X            X    ...OOOOOOO...         X     oX ",
" XXXXXXXXXXXXXXXXXX...OOOOOOO...XXXXXXXXXXXXXXXXX ",
" X       oXo       ...OOOOOOO...    oo         oX ",
" X        X        ...OOOOOOO...               oX ",
" X        X        ...OOOOOOO...               oX ",
" X        X        ...OOOOOOO...               oX ",
" XXXXXXXXXXXXXXXXXX...+++++++...XXXXXXXXXXXXXXXXX ",
" X         oo      ...+++++++...     oXo       oX ",
" X                 ...+++++++...      X        oX ",
" X                 ...+++++++...      X        oX ",
" X                 ...+++++++...      X        oX ",
" XXXXXXXXXXXXXXXXXX...+++++++...XXXXXXXXXXXXXXXXX ",
" X oXo           Xo...+++++++...           oXo oX ",
" X  X            X ...+++++++...            X  oX ",
" X  X            X ...+++++++...            X  oX ",
" X  X            X ...+++++++...            X  oX ",
" XXXXXXXXXXXXXXXXXX...+++++++...XXXXXXXXXXXXXXXXX ",
" X          o      ...+++++++...      Xo       oX ",
" X                 ...+++++++...      X        oX ",
" X                 ...+++++++...      X        oX ",
" X                 ...+++++++...      X        oX ",
" XXXXXXXXXXXXXXXXXX...+++++++...XXXXXXXXXXXXXXXXX ",
" X     Xo          ...+++++++... oXo           oX ",
" X     X           ...+++++++...  X            oX ",
" X     X           ...+++++++...  X            oX ",
" X     X           ...+++++++...  X            oX ",
" XXXXXXXXXXXXXXXXXX...+++++++...XXXXXXXXXXXXXXXXX ",
" X            oXo  ...+++++++...         oo    oX ",
" X             X   ...+++++++...               oX ",
" X             X   ...+++++++...               oX ",
" X             X   ...+++++++...               oX ",
" XXXXXXXXXXXXXXXXXX.............XXXXXXXXXXXXXXXXX ",
"                   .............                  ",
"                   .............                  "
};
