/* XPM */
static char *result[] = {
/* columns rows colors chars-per-pixel */
"50 50 64 1 ",
"  c #1B171B",
". c #0C0A0C",
"X c #090809",
"o c #120F12",
"O c #0F0B0D",
"+ c #020202",
"@ c black",
"# c #070506",
"$ c #141114",
"% c #040404",
"& c #0D0B0D",
"* c #100D10",
"= c #6D5422",
"- c #806227",
"; c #46361A",
": c #D5A340",
"> c #FFC34D",
", c #F7B241",
"< c #F2AA3B",
"1 c #F9B644",
"2 c #E69028",
"3 c #D97716",
"4 c #EC9D32",
"5 c #050404",
"6 c #4A3918",
"7 c #55411A",
"8 c #E3AD44",
"9 c #FFCE69",
"0 c #FFD377",
"q c #EEA743",
"w c #A4752A",
"e c #3F3117",
"r c #151215",
"t c #FFE3A2",
"y c #FFF3CC",
"u c #AA8233",
"i c #FFD885",
"p c #FFCB62",
"a c #ECA13C",
"s c #ECB571",
"d c #070607",
"f c #FFEEBE",
"g c #FFEBB7",
"h c #ECB166",
"j c #BA6E1A",
"k c #DF841F",
"l c #F4CE92",
"z c #B56312",
"x c #F2CA8F",
"c c #EEB15F",
"v c #E6A053",
"b c #7A430D",
"n c #914F0F",
"m c #CD7015",
"M c #EAAE67",
"N c #FBD07F",
"B c #755A26",
"V c #0F0D0F",
"C c #FFDB8D",
"Z c #F2C481",
"A c #FFD782",
"S c #080708",
"D c #975310",
"F c #CA8D31",
/* pixels */
"                  .XXXXXXXXXXXo                   ",
" OOOOOOOOOOOOOOOOO+@@@@@@@@@@@#OOOOOOOOOOOOOOOOOO ",
" O$         O     %@@@@@@@@@@@&       O         O ",
" O$         O  *&&=-----------;&&o    O         O ",
" O$         O  %@@:>>>>>>>>>>>-@@X    O         O ",
" O$         O  %@@:>>>>>>>>>>>-@@X    O         O ",
" O$         O  %@@:>>>>>,<<1>>-@@X    O         O ",
" OOOOOOOOOOOOOO+@@:>>>>>2334>>-@@5OOOOOOOOOOOOOOO ",
" O$$O$         %@@:>>>>>2334>>-@@X         $O$  O ",
" O$ O       ooo6778>>900q224<<w77eoor       O   O ",
" O$ O       @@@:>>>>>tyy0>>4334>>u@@X       O   O ",
" O$ O       @@@:>>>>>tyy0>>4334>>u@@X       O   O ",
" OOOOOOOOOOO@@@:>>>>>tyyippa334>>u@@5OOOOOOOOOOOO ",
" O$     O$  @@@:>>>>>tyyyyys334>>u@@d           O ",
" O$     O   @@@:>>>>>tyyyyys334>>u@@X           O ",
" O$     O   @@@:>>>>>tyyfggh334>>u@@X           O ",
" O$     O   @@@:>>>>>tyy0>>4334>>u@@X           O ",
" OOOOOOOOOOO@@@:>>>>>tyy0>>4334>>u@@5OOOOOOOOOOOO ",
" O$         @@@:>>>>>tyy0>>4334>>u@@X $O$       O ",
" O$         @@@:>>>>>tyyyyys334>>u@@X  O        O ",
" O$         @@@:>>>>>tyyyyys334>>u@@X  O        O ",
" O$         @@@:>>>>>tyyyyys334>>u@@X  O        O ",
" OOOOOOOOOOO@@@jkkkkklyyippa334>>u@@5OOOOOOOOOOOO ",
" O$       $O@@@z33333xyy0>>4334>>u@@X$$         O ",
" O$        O@@@z33333xyy0>>4334>>u@@X           O ",
" O$        O@@@z33333xyy0>>4334>>u@@X           O ",
" O$        O@@@z33333xyy0>>4334>>u@@X           O ",
" OOOOOOOOOOO@@@z33333xyy0>>4334>>u@@5OOOOOOOOOOOO ",
" O$ $O$     @@@z33333xyyc22k334>>u@@X       $O$ O ",
" O$  O      @@@z33333xyyv333334>>u@@X        O  O ",
" O$  O      @@@z33333xyyv333334>>u@@X        O  O ",
" O$  O      @@@z33333xyyv333334>>u@@X        O  O ",
" OOOOOOOOOOO@@@z33333xyyv333334>>u@@5OOOOOOOOOOOO ",
" O$       $O@@@z33333xyyv333334>>u@@X$          O ",
" O$        O@@@z33333xyyv333334>>u@@X           O ",
" O$        O@@@z33333xyyv333334>>u@@X           O ",
" O$        O@@@z33333xyyv333334>>u@@X           O ",
" OOOOOOOOOOO@@@z33333xyyc22222<>>u@@5OOOOOOOOOOOO ",
" O$         @@@z33333xyy0>>>>>>>>u@@X    $O     O ",
" O$         @@@z33333xyy0>>>>>>>>u@@X     O     O ",
" O$         XXXbnnm33MxxN00p>>:uuBXXV     O     O ",
" O$            +@@z33333xyyC>>-@@X        O     O ",
" OOOOOOOOOOOOOO+@@z33333xyyC>>-@@5OOOOOOOOOOOOOOO ",
" O$    $$      %@@z33333ZggA>>-@@dO$            O ",
" O$            %@@z33333<>>>>>-@@XO             O ",
" O$            %@@z33333<>>>>>-@@XO             O ",
" O$            S%%DzzzzzF:::::=%%.O             O ",
" OOOOOOOOOOOOOOOOO+@@@@@@@@@@@#OOOOOOOOOOOOOOOOOO ",
"                  %@@@@@@@@@@@&                   ",
"                  %@@@@@@@@@@@&                   "
};
