/* XPM */
static char *result[] = {
/* columns rows colors chars-per-pixel */
"50 50 7 1 ",
"  c #1B171B",
". c black",
"X c #0F0B0D",
"o c #141114",
"O c #FFC34D",
"+ c #D97716",
"@ c #FFF3CC",
/* pixels */
"               ...................                ",
" XXXXXXXXXXXXXX...................XXXXXXXXXXXXXXX ",
" X         X   ...................   X         oX ",
" X         X...OOOOOOOOOOOOOOOOOOO....         oX ",
" X         X...OOOOOOOOOOOOOOOOOOO....         oX ",
" X         X...OOOOOOOOOOOOOOOOOOO....         oX ",
" X         X...OOOOOOOOOOOOOOOOOOO....         oX ",
" XXXXXXXX...OOO++++++++++++++++OOOOOOO...XXXXXXXX ",
" X  oXo  ...OOO++++++++++++++++OOOOOOO...   oXooX ",
" X   X   ...OOO++++++++++++++++OOOOOOO...    X oX ",
" X   X...OOO+++OOOOOOOOOOOOOOOO@@@OOOOOOO... X oX ",
" X   X...OOO+++OOOOOOOOOOOOOOOO@@@OOOOOOO... X oX ",
" XXXXX...OOO+++OOOOOOOOOOOOOOOO@@@OOOOOOO...XXXXX ",
" X    ...OOO+++OOOO@@@@@@OOOOOO@@@OOOOOOO...   oX ",
" X    ...OOO+++OOOO@@@@@@OOOOOO@@@OOOOOOO...   oX ",
" X    ...OOO+++OOOO@@@@@@OOOOOO@@@OOOOOOO...   oX ",
" X ...OOO+++OOOOOOO@@@OOO+++OOOOOO@@@@OOOOOO...oX ",
" XX...OOO+++OOOOOOO@@@OOO+++OOOOOO@@@@OOOOOO...XX ",
" X ...OOO+++OOOOOOO@@@OOO+++OOOOOO@@@@OOOOOO...oX ",
" X ...OOO+++@@@@@@@@@@OOOOOO@@@OOO@@@@OOOOOO...oX ",
" X ...OOO+++@@@@@@@@@@OOOOOO@@@OOO@@@@OOOOOO...oX ",
" X ...OOO+++@@@@@@@@@@OOOOOO@@@OOO@@@@OOOOOO...oX ",
" XX...OOO+++@@@OOOOOOOOOOOOOOOO+++@@@@OOO+++...XX ",
" X ...OOO+++@@@OOOOOOOOOOOOOOOO+++@@@@OOO+++...oX ",
" X ...OOO+++@@@OOOOOOOOOOOOOOOO+++@@@@OOO+++...oX ",
" X ...OOO+++@@@OOOOOOOOOOOOOOOO+++@@@@OOO+++...oX ",
" X ...OOO+++@@@OOOOOOOOOOOOOOOO+++@@@@OOO+++...oX ",
" XX...OOO+++@@@OOOOOOOOOOOOOOOO+++@@@@OOO+++...XX ",
" X ...OOO+++OOO++++OOOOOO+++++++++@@@@OOO+++...oX ",
" X ...OOO+++OOO++++OOOOOO+++++++++@@@@OOO+++...oX ",
" X ...OOO+++OOO++++OOOOOO+++++++++@@@@OOO+++...oX ",
" X ...OOO+++OOOOOOO@@@OOO+++OOOOOO@@@@OOO+++...oX ",
" XX...OOO+++OOOOOOO@@@OOO+++OOOOOO@@@@OOO+++...XX ",
" X ...OOO+++OOOOOOO@@@OOO+++OOOOOO@@@@OOO+++...oX ",
" X    ...OOO+++OOOOOOO++++++OOO@@@OOOO+++...   oX ",
" X    ...OOO+++OOOOOOO++++++OOO@@@OOOO+++...   oX ",
" X    ...OOO+++OOOOOOO++++++OOO@@@OOOO+++...   oX ",
" XXXXX...OOO+++OOOOOOO++++++OOO@@@OOOO+++...XXXXX ",
" X    ...OOO+++OOOOOOOOOOOOOOOO@@@OOOO+++...   oX ",
" X    ...OOO+++OOOOOOOOOOOOOOOO@@@OOOO+++...   oX ",
" X    ...OOO+++OOOOOOOOOOOOOOOO@@@OOOO+++...   oX ",
" X     X ...OOO@@@@@@@@@@@@@@@@OOO++++...      oX ",
" XXXXXXXX...OOO@@@@@@@@@@@@@@@@OOO++++...XXXXXXXX ",
" X       ...OOO@@@@@@@@@@@@@@@@OOO++++...oo    oX ",
" X          ...OOOOOOOOOOOOOOOO+++....         oX ",
" X          ...OOOOOOOOOOOOOOOO+++....         oX ",
" X          ...OOOOOOOOOOOOOOOO+++....         oX ",
" XXXXXXXXXXXXXX...................XXXXXXXXXXXXXXX ",
"               ...................                ",
"               ...................                "
};
