/* XPM */
static char *result[] = {
/* columns rows colors chars-per-pixel */
"50 50 7 1 ",
"  c #1B171B",
". c black",
"X c #0F0B0D",
"o c #141114",
"O c #FFC34D",
"+ c #D97716",
"@ c #FFF3CC",
/* pixels */
"                ...................               ",
" XXXXXXXXXXXXXXX...................XXXXXXXXXXXXXX ",
" Xo         X   ...................   X         X ",
" Xo         ....OOOOOOOOOOOOOOOOOOO...X         X ",
" Xo         ....OOOOOOOOOOOOOOOOOOO...X         X ",
" Xo         ....OOOOOOOOOOOOOOOOOOO...X         X ",
" Xo         ....OOOOOOOOOOOOOOOOOOO...X         X ",
" XXXXXXXX...OOOOOOO++++++++++++++++OOO...XXXXXXXX ",
" XooXo   ...OOOOOOO++++++++++++++++OOO...  oXo  X ",
" Xo X    ...OOOOOOO++++++++++++++++OOO...   X   X ",
" Xo X ...OOOOOOO@@@OOOOOOOOOOOOOOOO+++OOO...X   X ",
" Xo X ...OOOOOOO@@@OOOOOOOOOOOOOOOO+++OOO...X   X ",
" XXXXX...OOOOOOO@@@OOOOOOOOOOOOOOOO+++OOO...XXXXX ",
" Xo   ...OOOOOOO@@@OOOOOO@@@@@@OOOO+++OOO...    X ",
" Xo   ...OOOOOOO@@@OOOOOO@@@@@@OOOO+++OOO...    X ",
" Xo   ...OOOOOOO@@@OOOOOO@@@@@@OOOO+++OOO...    X ",
" Xo...OOOOOO@@@@OOOOOO+++OOO@@@OOOOOOO+++OOO... X ",
" XX...OOOOOO@@@@OOOOOO+++OOO@@@OOOOOOO+++OOO...XX ",
" Xo...OOOOOO@@@@OOOOOO+++OOO@@@OOOOOOO+++OOO... X ",
" Xo...OOOOOO@@@@OOO@@@OOOOOO@@@@@@@@@@+++OOO... X ",
" Xo...OOOOOO@@@@OOO@@@OOOOOO@@@@@@@@@@+++OOO... X ",
" Xo...OOOOOO@@@@OOO@@@OOOOOO@@@@@@@@@@+++OOO... X ",
" XX...+++OOO@@@@+++OOOOOOOOOOOOOOOO@@@+++OOO...XX ",
" Xo...+++OOO@@@@+++OOOOOOOOOOOOOOOO@@@+++OOO... X ",
" Xo...+++OOO@@@@+++OOOOOOOOOOOOOOOO@@@+++OOO... X ",
" Xo...+++OOO@@@@+++OOOOOOOOOOOOOOOO@@@+++OOO... X ",
" Xo...+++OOO@@@@+++OOOOOOOOOOOOOOOO@@@+++OOO... X ",
" XX...+++OOO@@@@+++OOOOOOOOOOOOOOOO@@@+++OOO...XX ",
" Xo...+++OOO@@@@+++++++++OOOOOO++++OOO+++OOO... X ",
" Xo...+++OOO@@@@+++++++++OOOOOO++++OOO+++OOO... X ",
" Xo...+++OOO@@@@+++++++++OOOOOO++++OOO+++OOO... X ",
" Xo...+++OOO@@@@OOOOOO+++OOO@@@OOOOOOO+++OOO... X ",
" XX...+++OOO@@@@OOOOOO+++OOO@@@OOOOOOO+++OOO...XX ",
" Xo...+++OOO@@@@OOOOOO+++OOO@@@OOOOOOO+++OOO... X ",
" Xo   ...+++OOOO@@@OOO++++++OOOOOOO+++OOO...    X ",
" Xo   ...+++OOOO@@@OOO++++++OOOOOOO+++OOO...    X ",
" Xo   ...+++OOOO@@@OOO++++++OOOOOOO+++OOO...    X ",
" XXXXX...+++OOOO@@@OOO++++++OOOOOOO+++OOO...XXXXX ",
" Xo   ...+++OOOO@@@OOOOOOOOOOOOOOOO+++OOO...    X ",
" Xo   ...+++OOOO@@@OOOOOOOOOOOOOOOO+++OOO...    X ",
" Xo   ...+++OOOO@@@OOOOOOOOOOOOOOOO+++OOO...    X ",
" Xo      ...++++OOO@@@@@@@@@@@@@@@@OOO... X     X ",
" XXXXXXXX...++++OOO@@@@@@@@@@@@@@@@OOO...XXXXXXXX ",
" Xo    oo...++++OOO@@@@@@@@@@@@@@@@OOO...       X ",
" Xo         ....+++OOOOOOOOOOOOOOOO...          X ",
" Xo         ....+++OOOOOOOOOOOOOOOO...          X ",
" Xo         ....+++OOOOOOOOOOOOOOOO...          X ",
" XXXXXXXXXXXXXXX...................XXXXXXXXXXXXXX ",
"                ...................               ",
"                ...................               "
};
