/* XPM */
static char *result[] = {
/* columns rows colors chars-per-pixel */
"50 50 64 1 ",
"  c #1B171B",
". c #120F12",
"X c #090809",
"o c #0C0A0C",
"O c #0F0B0D",
"+ c #070506",
"@ c black",
"# c #020202",
"$ c #0D0B0D",
"% c #040404",
"& c #141114",
"* c #46361A",
"= c #806227",
"- c #6D5422",
"; c #100D10",
": c #FFC34D",
"> c #D5A340",
", c #F9B644",
"< c #F2AA3B",
"1 c #F7B241",
"2 c #050404",
"3 c #EC9D32",
"4 c #D97716",
"5 c #E69028",
"6 c #151215",
"7 c #3F3117",
"8 c #55411A",
"9 c #A4752A",
"0 c #EEA743",
"q c #FFD377",
"w c #FFCE69",
"e c #E3AD44",
"r c #4A3918",
"t c #AA8233",
"y c #FFF3CC",
"u c #FFE3A2",
"i c #ECA13C",
"p c #FFCB62",
"a c #FFD885",
"s c #070607",
"d c #ECB571",
"f c #ECB166",
"g c #FFEBB7",
"h c #FFEEBE",
"j c #F4CE92",
"k c #DF841F",
"l c #BA6E1A",
"z c #F2CA8F",
"x c #B56312",
"c c #EEB15F",
"v c #E6A053",
"b c #0F0D0F",
"n c #755A26",
"m c #FBD07F",
"M c #EAAE67",
"N c #CD7015",
"B c #914F0F",
"V c #7A430D",
"C c #FFDB8D",
"Z c #FFD782",
"A c #F2C481",
"S c #CA8D31",
"D c #975310",
"F c #080708",
/* pixels */
"                   .XXXXXXXXXXXo                  ",
" OOOOOOOOOOOOOOOOOO+@@@@@@@@@@@#OOOOOOOOOOOOOOOOO ",
" O         O       $@@@@@@@@@@@%     O         &O ",
" O         O    .$$*===========-$$;  O         &O ",
" O         O    X@@=:::::::::::>@@%  O         &O ",
" O         O    X@@=:::::::::::>@@%  O         &O ",
" O         O    X@@=::,<<1:::::>@@%  O         &O ",
" OOOOOOOOOOOOOOO2@@=::3445:::::>@@#OOOOOOOOOOOOOO ",
" O  &O&         X@@=::3445:::::>@@%         &O&&O ",
" O   O       6..7889<<3550qqw::e88r...       O &O ",
" O   O       X@@t::3443::qyyu:::::>@@@       O &O ",
" O   O       X@@t::3443::qyyu:::::>@@@       O &O ",
" OOOOOOOOOOOO2@@t::344ippayyu:::::>@@@OOOOOOOOOOO ",
" O           s@@t::344dyyyyyu:::::>@@@  &O     &O ",
" O           X@@t::344dyyyyyu:::::>@@@   O     &O ",
" O           X@@t::344fgghyyu:::::>@@@   O     &O ",
" O           X@@t::3443::qyyu:::::>@@@   O     &O ",
" OOOOOOOOOOOO2@@t::3443::qyyu:::::>@@@OOOOOOOOOOO ",
" O       &O& X@@t::3443::qyyu:::::>@@@         &O ",
" O        O  X@@t::344dyyyyyu:::::>@@@         &O ",
" O        O  X@@t::344dyyyyyu:::::>@@@         &O ",
" O        O  X@@t::344dyyyyyu:::::>@@@         &O ",
" OOOOOOOOOOOO2@@t::344ippayyjkkkkkl@@@OOOOOOOOOOO ",
" O         &&X@@t::3443::qyyz44444x@@@O&       &O ",
" O           X@@t::3443::qyyz44444x@@@O        &O ",
" O           X@@t::3443::qyyz44444x@@@O        &O ",
" O           X@@t::3443::qyyz44444x@@@O        &O ",
" OOOOOOOOOOOO2@@t::3443::qyyz44444x@@@OOOOOOOOOOO ",
" O &O&       X@@t::344k55cyyz44444x@@@     &O& &O ",
" O  O        X@@t::344444vyyz44444x@@@      O  &O ",
" O  O        X@@t::344444vyyz44444x@@@      O  &O ",
" O  O        X@@t::344444vyyz44444x@@@      O  &O ",
" OOOOOOOOOOOO2@@t::344444vyyz44444x@@@OOOOOOOOOOO ",
" O          &X@@t::344444vyyz44444x@@@O&       &O ",
" O           X@@t::344444vyyz44444x@@@O        &O ",
" O           X@@t::344444vyyz44444x@@@O        &O ",
" O           X@@t::344444vyyz44444x@@@O        &O ",
" OOOOOOOOOOOO2@@t::<55555cyyz44444x@@@OOOOOOOOOOO ",
" O     O&    X@@t::::::::qyyz44444x@@@         &O ",
" O     O     X@@t::::::::qyyz44444x@@@         &O ",
" O     O     bXXntt>::pqqmzzM44NBBVXXX         &O ",
" O     O        X@@=::Cyyz44444x@@#            &O ",
" OOOOOOOOOOOOOOO2@@=::Cyyz44444x@@#OOOOOOOOOOOOOO ",
" O            &Os@@=::ZggA44444x@@%      &&    &O ",
" O             OX@@=:::::<44444x@@%            &O ",
" O             OX@@=:::::<44444x@@%            &O ",
" O             Oo%%->>>>>SxxxxxD%%F            &O ",
" OOOOOOOOOOOOOOOOOO+@@@@@@@@@@@#OOOOOOOOOOOOOOOOO ",
"                   $@@@@@@@@@@@%                  ",
"                   $@@@@@@@@@@@%                  "
};
