/* XPM */
static char *result[] = {
/* columns rows colors chars-per-pixel */
"50 50 97 2 ",
"   c #1B171B",
".  c #0F0B0D",
"X  c #141114",
"o  c #2C3239",
"O  c #34353F",
"+  c #403646",
"@  c #443A4A",
"#  c #1E1C20",
"$  c #24252A",
"%  c #505B5E",
"&  c #5D6567",
"*  c #6B6C71",
"=  c #7B727C",
"-  c #354048",
";  c #879289",
":  c #ADAFA4",
">  c #C0BDB1",
",  c #D8DACC",
"<  c #E4E8DA",
"1  c #383440",
"2  c #6D6A72",
"3  c #E0E3D5",
"4  c #413848",
"5  c #282E34",
"6  c #636A6B",
"7  c #576062",
"8  c #9AA096",
"9  c #C8C7BA",
"0  c #CCCBBF",
"q  c #4B5459",
"w  c #777B7C",
"e  c #9D9797",
"r  c #A8A79F",
"t  c #B3B3A8",
"y  c #414451",
"u  c #584C62",
"i  c #6B7374",
"p  c #6F7879",
"a  c #77747B",
"s  c #8B8689",
"d  c #9E7F6D",
"f  c #9A7468",
"g  c #484756",
"h  c #BF8853",
"j  c #A96C41",
"k  c #E9AD3B",
"l  c #C68721",
"z  c #68636F",
"x  c #4E4E5B",
"c  c #C4C2B6",
"v  c #2F373E",
"b  c #918E8E",
"n  c #1C1D21",
"m  c #6C7773",
"M  c #2B2730",
"N  c #4C4859",
"B  c #A2AA9F",
"V  c #737979",
"C  c #585E63",
"Z  c #2F2933",
"A  c #B3B8AD",
"S  c #848485",
"D  c #5E6368",
"F  c #464C55",
"G  c #697271",
"H  c #A6AFA4",
"J  c #B7B8AD",
"K  c #41494D",
"L  c #A7AA9F",
"P  c #BFC2B6",
"I  c #87808A",
"U  c #62686C",
"Y  c #B5B4B2",
"T  c #989A97",
"R  c #61676B",
"E  c #A9A9A6",
"W  c #53565F",
"Q  c #92938E",
"!  c #212025",
"~  c #32373B",
"^  c #4C5159",
"/  c #C7CBBF",
"(  c #CACBBF",
")  c #333841",
"_  c #A7AFA6",
"`  c #B8BAB2",
"'  c #272129",
"]  c #AAB0A9",
"[  c #969D97",
"{  c #888C8B",
"}  c #393C40",
"|  c #9EA59B",
" . c #898C89",
".. c #3D434E",
"X. c #585864",
"o. c #17171A",
"O. c #131113",
/* pixels */
"                                                                                                    ",
"  . . . . . . . . . . . . . . . . . . . . . . . . . . . . . . . . . . . . . . . . . . . . . . . .   ",
"  .                   .                         .                         .                   X .   ",
"  .                   .                   o o O + @ @ O o o               .                   X .   ",
"  .                   .               # $ % & * = = = * & % $ #           .                   X .   ",
"  .                   .               $ - ; : > > > > > : ; - $           .                   X .   ",
"  .                   .             o % ; > , < < < < < , > ; % o         .                   X .   ",
"  . . . . . . . . . . . . . . . . . 1 2 : , 3 < < < < < 3 , : 2 1 . . . . . . . . . . . . . . . .   ",
"  .     X . X                     X + = > < < < < < < < < < > = 4                       X . X X .   ",
"  .       .                         + = > < < < < < < < < < > = @                         .   X .   ",
"  .       .                         5 6 > > , < < < < < , > > 6 o                         .   X .   ",
"  .       .                         5 7 8 > 9 0 0 0 0 0 9 > 8 7 o                         .   X .   ",
"  . . . . . . . . . . . . . . . . . 5 q w e r t > > > t r e w q 5 . . . . . . . . . . . . . . . .   ",
"  .                       X . X     o y u u w 8 > > > 8 w u u y o               X .           X .   ",
"  .                         .       o 6 > < 0 : ; > ; ; 8 > ; % o                 .           X .   ",
"  .                         .       o i , p a s : > ; d f = : & o                 .           X .   ",
"  .                         .       o i , y g a 0 0 8 h j u : & o                 .           X .   ",
"  . . . . . . . . . . . . . . . . . 5 6 > u y p < < > k l u ; % 5 . . . . . . . . . . . . . . . .   ",
"  .               X . X             @ z ; > > 0 < < < 0 : ; ; z @       X X                   X .   ",
"  .                 .               O x z 8 t c 0 0 0 c : ; z x O                             X .   ",
"  .                 .             $ v y u w b e e e e e b w u y v $                           X .   ",
"  .                 .             - - y u u u u u u u u u u u y - -                           X .   ",
"  . . . . . . . . . . . . . . n - > 8 m - u w ; ; ; ; ; w u - m 8 > - n . . . . . . . . . . . . .   ",
"  .                   X X     M N , B V N y q C z z z C q y N V B , N M   X . X               X .   ",
"  .                           Z u < A S u % % D = = = D % % u S A < u Z     .                 X .   ",
"  .                           Z u < 0 e u ; ; 8 > > > 8 ; ; u e 0 < u Z     .                 X .   ",
"  .                         o % ; > 8 ; ; < 0 0 < < < 0 0 < ; ; 8 > ; % o   .                 X .   ",
"  . . . . . . . . . . . . . 5 F z 8 G C z H J 0 < < < 0 J H z C G 8 z F 5 . . . . . . . . . . . .   ",
"  .   X . X               $ K D = ; % F z 8 L P < < < P L 8 z F % ; I U K $           X . X   X .   ",
"  .     .                 - m 8 > ; % % ; > 8 H < < < H 8 > ; % % ; < H m -             .     X .   ",
"  .     .                 u Y < < > = N - ; z u u u u u z ; - N = > < < Y u             .     X .   ",
"  .     .                 u Y < < , T R - % F g u w u g F % - R T , < < Y u             .     X .   ",
"  . . . . . . . . . . . . N E , , < H m - y q W u 8 u W q y - m H < , , E N . . . . . . . . . . .   ",
"  .                     X - Q > > < H m - u w w u > u w w u - m H < > > Q - . X               X .   ",
"  .                         o % ; > = u u < 0 : ; ; ; : 0 < u u = > ; % o   .                 X .   ",
"  .                         ! ~ % 6 ^ y y H / ( : ; : ( / H y y ^ 6 % ~ !   .                 X .   ",
"  .                           ! o o o ) y m _ ` e m e ` _ m y ) o o o !     .                 X .   ",
"  . . . . . . . . . . . . . . . . . . ' u - m w u - u w m - u ' . . . . . . . . . . . . . . . . .   ",
"  .           . X                       X u Y ] - - - ] Y u       X . X                       X .   ",
"  .           .                       ! o w [ { N - N { [ w o !     .                         X .   ",
"  .           .                   $ $ } 6 H |  .z - z  .| H 6 } $ $ .                         X .   ",
"  .           .                   - - 6 > < 0 : ; - ; : 0 < > 6 - - .                         X .   ",
"  . . . . . . . . . . . . . . n - - N I < > 8 w u - u w 8 > < I N - - n . . . . . . . . . . . . .   ",
"  .                         X n - - ..X.I = D q y - y q D = I X...- - $           X X         X .   ",
"  .                           o.o - - ..N N ..- - - - - ..N N ..- - o !                       X .   ",
"  .                           .   - - - - - - - - - - - - - - - - -                           X .   ",
"  .                           .       $ - - - - - - - - - - - $                               X .   ",
"  . . . . . . . . . . . . . . . . . . O.n n n n n n n n n n n O.. . . . . . . . . . . . . . . . .   ",
"                                                                                                    ",
"                                                                                                    "
};
