/* XPM */
static char *result[] = {
/* columns rows colors chars-per-pixel */
"50 50 95 2 ",
"   c #1B171B",
".  c #0F0B0D",
"X  c #354048",
"o  c #414451",
"O  c #584C62",
"+  c #141114",
"@  c #212025",
"#  c #2C3239",
"$  c #6C7773",
"%  c #858A85",
"&  c #969591",
"*  c #9D9797",
"=  c #32373B",
"-  c #505B5E",
";  c #9AA096",
":  c #BBBDB1",
">  c #CCCBBF",
",  c #879289",
"<  c #C0BDB1",
"1  c #D8DACC",
"2  c #E4E8DA",
"3  c #443A4A",
"4  c #7B727C",
"5  c #403646",
"6  c #383440",
"7  c #736F77",
"8  c #E0E3D5",
"9  c #393642",
"0  c #282E34",
"q  c #636A6B",
"w  c #464C55",
"e  c #68636F",
"r  c #727378",
"t  c #34353F",
"y  c #53565F",
"u  c #777B7C",
"i  c #625C6B",
"p  c #5D5466",
"a  c #323B43",
"s  c #4B5459",
"d  c #78787C",
"f  c #1E1C20",
"g  c #24252A",
"h  c #576062",
"j  c #596465",
"k  c #272129",
"l  c #A6AFA4",
"z  c #2F2933",
"x  c #BFC2B6",
"c  c #918E8E",
"v  c #818983",
"b  c #ADAFA4",
"n  c #3A3A41",
"m  c #969692",
"M  c #919C92",
"N  c #949C92",
"B  c #555F5F",
"V  c #7C827F",
"C  c #8D978D",
"Z  c #B5B4B2",
"A  c #848B88",
"S  c #B3B8AD",
"D  c #5E6368",
"F  c #4F555C",
"G  c #898C89",
"H  c #BBC2B6",
"J  c #4C4859",
"K  c #9E9E9A",
"L  c #61676B",
"P  c #65686E",
"I  c #6F7271",
"U  c #9B9C95",
"Y  c #989A97",
"T  c #87808A",
"R  c #949692",
"E  c #C5CBBF",
"W  c #31313A",
"Q  c #89938D",
"!  c #29232B",
"~  c #888C8B",
"^  c #AAB0A9",
"/  c #4E5355",
"(  c #92938E",
")  c #B5B8AD",
"_  c #9B9D96",
"`  c #585D62",
"'  c #D0D0C3",
"]  c #B0B0A8",
"[  c #606068",
"{  c #3D434E",
"}  c #1C1D21",
"|  c #131113",
" . c #1F2125",
".. c #39414B",
"X. c #2F373E",
/* pixels */
"                                                                                                    ",
"  . . . . . . . . . . . . . . . . . . . . . . . . . . . . . . . . . . . . . . . . . . . . . . . .   ",
"  .                   .                   X X o O O O o X X               .                   + .   ",
"  .                   .               @ # $ % & * * * & % $ # @           .                   + .   ",
"  .                   .             @ = - ; : > > > > > : ; - = @         .                   + .   ",
"  .                   .             # - , < 1 2 2 2 2 2 1 < , - #         .                   + .   ",
"  .                   .             3 4 < 2 2 2 2 2 2 2 2 2 < 4 3         .                   + .   ",
"  . . . . . . . . . . . . . . . . . 5 4 < 2 2 2 2 2 2 2 2 2 < 4 5 . . . . . . . . . . . . . . . .   ",
"  .     + . +                     + 6 7 < 1 8 2 2 2 2 2 8 1 < 7 9                       + . + + .   ",
"  .       .                         0 q < < 1 2 2 2 2 2 1 < < q #                         .   + .   ",
"  .       .                         0 - , < < < < < < < < < , - #                         .   + .   ",
"  .       .                         0 w e ; ; ; ; ; ; ; ; ; e w #                         .   + .   ",
"  . . . . . . . . . . . . . . . . . 0 w e , , , , , , , , , e w 0 . . . . . . . . . . . . . . . .   ",
"  .                       + . +     # - , , , , , , , , , , , - #               + .           + .   ",
"  .                         .       # - , , , , , , , , , , , - #                 .           + .   ",
"  .                         .       # - , , r e e e e e r , , - #                 .           + .   ",
"  .                         .       t y u u i p e e e p i u u y t                 .           + .   ",
"  . . . . . . . . . . . . . . . . . 5 O O O O e , , , e O O O O 5 . . . . . . . . . . . . . . . .   ",
"  .               + . +             # o O O u ; < 2 < ; u O O o #       + +                   + .   ",
"  .                 .             # a s u O i d ; > ; d i O u s a #                           + .   ",
"  .                 .         f g q h j $ O i d ; > ; d i O $ j h q g f                       + .   ",
"  .                 .         g X < ; $ X O u ; < 2 < ; u O X $ ; < X g                       + .   ",
"  . . . . . . . . . . . . . . k O 2 l u O X X - , < , - X X O u l 2 O k . . . . . . . . . . . . .   ",
"  .                   + +     z O 2 x c O $ $ v b 1 b v $ $ O c x 2 O z   + . +               + .   ",
"  .                         @ n e 1 : m e l M N b 1 b N M l e m : 1 e n @   .                 + .   ",
"  .                         # - , < ; , , 2 l , , < , , l 2 , , ; < , - #   .                 + .   ",
"  .                         # o O , - o O , , ; < 2 < ; , , O o - , O o #   .                 + .   ",
"  . . . . . . . . . . . . 0 B V * , - s u b N C ; > ; C N b u s - , Z A B 0 . . . . . . . . . . .   ",
"  .   + . +               o A S > ; D F $ b G u u > u u G b $ F D ; 2 H A o           + . +   + .   ",
"  .     .                 O Z 2 2 < 4 J X , e O O 2 O O e , X J 4 < 2 2 Z O             .     + .   ",
"  .     .                 O Z 2 2 2 l $ X X X o O < O o X X X $ l 2 2 2 Z O             .     + .   ",
"  .     .                 o K > > 2 l $ X J L P O ; O P L J X $ l 2 > > K o             .     + .   ",
"  . . . . . . . . . . . . 0 I U b 1 Y P o T R G e , e G R T o P Y 1 b U I 0 . . . . . . . . . . .   ",
"  .                     +   # - , < 4 O O 2 > b , , , b > 2 O O 4 < , - #   . +               + .   ",
"  .                           g X X X X X , E 1 < , < 1 E , X X X X X g     .                 + .   ",
"  .                           f g g g W J - Q Y 4 - 4 Y Q - J W g g g f     .                 + .   ",
"  .                                   ! 3 o A ~ J X J ~ A o 3 !             .                 + .   ",
"  . . . . . . . . . . . . . . . . . . . . O Z ^ X X X ^ Z O . . . . . . . . . . . . . . . . . . .   ",
"  .           . +                     g X , , u O X O u , , X g   + . +                       + .   ",
"  .           .                   # # / ( E ) _ u X u _ ) E ( / # # .                         + .   ",
"  .           .               f g X X ` * 1 ' ] u X u ] ' 1 * [ { X } f                       + .   ",
"  .           .               g X X X o O < 1 Z O X O Z 1 < O O J X X g                       + .   ",
"  . . . . . . . . . . . . . . } X X X X X O o X X X X X X X O o X X X } . . . . . . . . . . . . .   ",
"  .                         + |  .X X X X o ..X X X X X X X o ..X X g f           + +         + .   ",
"  .                           .   # # X.X X X X X X X X X X X X.# #                           + .   ",
"  .                           .       g X X X X X X X X X X X g                               + .   ",
"  .                           .                         .                                     + .   ",
"  . . . . . . . . . . . . . . . . . . . . . . . . . . . . . . . . . . . . . . . . . . . . . . . .   ",
"                                                                                                    ",
"                                                                                                    "
};
