/* XPM */
static char *result[] = {
/* columns rows colors chars-per-pixel */
"50 50 107 2 ",
"   c #1B171B",
".  c #0F0B0D",
"X  c #141114",
"o  c #2C3239",
"O  c #3C3844",
"+  c #443A4A",
"@  c #403646",
"#  c #1E1C20",
"$  c #24252A",
"%  c #505B5E",
"&  c #6D6A72",
"*  c #7B727C",
"=  c #636A6B",
"-  c #5D6567",
";  c #354048",
":  c #879289",
">  c #ADAFA4",
",  c #C0BDB1",
"<  c #D8DACC",
"1  c #E4E8DA",
"2  c #383440",
"3  c #E0E3D5",
"4  c #413848",
"5  c #30313A",
"6  c #6B6C71",
"7  c #C8C7BA",
"8  c #CCCBBF",
"9  c #9AA096",
"0  c #6E6873",
"q  c #282E34",
"w  c #A39F9B",
"e  c #9D9797",
"r  c #606169",
"t  c #68636F",
"y  c #584C62",
"u  c #414451",
"i  c #67656C",
"p  c #7D8280",
"a  c #AA755E",
"s  c #8A7372",
"d  c #8B8689",
"f  c #8C8E8E",
"g  c #A2AA9F",
"h  c #D17C31",
"j  c #805C52",
"k  c #746D78",
"l  c #4C4859",
"z  c #373943",
"x  c #27292F",
"c  c #B5B4B2",
"v  c #FDA500",
"b  c #8F6A41",
"n  c #1C1D21",
"m  c #AAB0A9",
"M  c #9A9D97",
"N  c #C4C2B6",
"B  c #A9A49F",
"V  c #696A70",
"C  c #61676B",
"Z  c #707472",
"A  c #92938E",
"S  c #827D82",
"D  c #65686E",
"F  c #596465",
"G  c #777B7C",
"H  c #212025",
"J  c #32373B",
"K  c #4B5459",
"L  c #BDC2B6",
"P  c #A9A9A6",
"I  c #323B43",
"U  c #444E54",
"Y  c #CBD0C3",
"T  c #818983",
"R  c #898C89",
"E  c #B1B3AF",
"W  c #6C7773",
"Q  c #878C89",
"!  c #87808A",
"~  c #2D3135",
"^  c #A6AFA4",
"/  c #463F4F",
"(  c #6F6574",
")  c #B8BAB2",
"_  c #DCDED1",
"`  c #5B565E",
"'  c #867E85",
"]  c #C5CBBF",
"[  c #7B7980",
"{  c #707876",
"}  c #949C92",
"|  c #585D62",
" . c #7C827F",
".. c #39414B",
"X. c #3D434E",
"o. c #454554",
"O. c #9C9A97",
"+. c #7B7A7C",
"@. c #2F373E",
"#. c #ABAFA4",
"$. c #858A85",
"%. c #4E4E5B",
"&. c #78787C",
"*. c #5B5965",
"=. c #17171A",
"-. c #575862",
";. c #131113",
/* pixels */
"                                                                                                    ",
"  . . . . . . . . . . . . . . . . . . . . . . . . . . . . . . . . . . . . . . . . . . . . . . . .   ",
"  .                   .                         .                         .                   X .   ",
"  .                   .                   o O + @ + o o o o               .                   X .   ",
"  .                   .               # $ % & * * * = = - % $ #           .                   X .   ",
"  .                   .               $ ; : > , , , , , > : ; $           .                   X .   ",
"  .                   .             o % : , < 1 1 1 1 1 < , : % o         .                   X .   ",
"  . . . . . . . . . . . . . . . . . 2 & > < 3 1 1 1 1 1 3 < > & 2 . . . . . . . . . . . . . . . .   ",
"  .     X . X                     X @ * , 1 1 1 1 1 1 1 1 1 , * 4                       X . X X .   ",
"  .       .                         @ * , 1 1 1 1 1 1 1 1 1 , * +                         .   X .   ",
"  .       .                         @ * , , < 1 1 1 1 1 < , , * +                         .   X .   ",
"  .       .                         5 6 , , 7 8 8 8 8 8 7 , 9 0 +                         .   X .   ",
"  . . . . . . . . . . . . . . . . . q = , > w e e > > > > > : r 2 . . . . . . . . . . . . . . . .   ",
"  .                       X . X     o = , : t y y : : : : : : % o               X .           X .   ",
"  .                         .       + t : : > > : y : : : : y u o                 .           X .   ",
"  .                         .     + i p : a s d > e t t t t y u o                 .           X .   ",
"  .                         .     y f g 9 h j k > , y y y y l z x                 .           X .   ",
"  . . . . . . . . . . . . . . . . y c < , v b t : , y y y y ; n . . . . . . . . . . . . . . . . .   ",
"  .               X . X           ; m 1 1 1 8 , , : ; l l ;             X X                   X .   ",
"  .                 .             ; M 8 8 8 N B * % l V C ;                                   X .   ",
"  .                 .             o Z A A e e S l u y D F ;                                   X .   ",
"  .                 .               o ; ; y y l ; y y u ; ;                                   X .   ",
"  . . . . . . . . . . . . . . . . . q % : : : G y ; : > A ; . . . . . . . . . . . . . . . . . . .   ",
"  .                   X X           H J % % % K u l : L P l               X . X               X .   ",
"  .                                   H o o I U = t 9 Y c y $ #             .                 X .   ",
"  .                                         o = , : , < c y ; $             .                 X .   ",
"  .                                       y c 1 1 y : > > : ; $             .                 X .   ",
"  . . . . . . . . . . . . . . . . . . . . y c 1 1 G % T R t ; n . . . . . . . . . . . . . . . . .   ",
"  .   X . X                       . X     l E 3 < : ; W Q ! % ~ H                     X . X   X .   ",
"  .     .                         .       ; m < , : ; W ^ 1 : % o                       .     X .   ",
"  .     .                         .       ; l y y y y e 8 1 1 ! +                       .     X .   ",
"  .     .                         .       $ / ( e u G ) _ 1 1 ! +                       .     X .   ",
"  . . . . . . . . . . . . . . . . . . . . n ` ' e u : ] 3 < < [ 2 . . . . . . . . . . . . . . . .   ",
"  .                     X                 ; A e y y : ] < , , = o           . X               X .   ",
"  .                                       y G : : , y e > : ; $             .                 X .   ",
"  .                                       u { } > < u | - % $ #             .                 X .   ",
"  .                                       ; F  .e ] u ..I o                 .                 X .   ",
"  . . . . . . . . . . . . . . . . . . . . ; ; u y : y u q . . . . . . . . . . . . . . . . . . . .   ",
"  .           . X                       X ; l l ; : , * l ;       X . X                       X .   ",
"  .           .                     x o o ; X.o.l t 9 O.+.; o o x   .                         X .   ",
"  .           .                   $ @...u u ..u y * ^ #.$.; ; ; @.$ .                         X .   ",
"  .           .                   ; ; u y y u u y , 1 ^ W ; ; ; ; ; .                         X .   ",
"  . . . . . . . . . . . . . . n ; ; ; ; ; ; l t : 1 , 9 G y ; ; ; ; ; n . . . . . . . . . . . . .   ",
"  .                         X n ; ; ; ; ; ; X.%.t ^ 9 &.*.u ; ; ; ; ; $           X X         X .   ",
"  .                           =.o ; ; ; ; ; ; X.l W W -.o.; ; ; ; ; o H                       X .   ",
"  .                           .   ; ; ; ; ; ; ; ; ; ; ; ; ; ; ; ; ;                           X .   ",
"  .                           .       $ ; ; ; ; ; ; ; ; ; ; ; $                               X .   ",
"  . . . . . . . . . . . . . . . . . . ;.n n n n n n n n n n n ;.. . . . . . . . . . . . . . . . .   ",
"                                                                                                    ",
"                                                                                                    "
};
