/* XPM */
static char *result[] = {
/* columns rows colors chars-per-pixel */
"50 50 103 2 ",
"   c #1B171B",
".  c #0F0B0D",
"X  c #141114",
"o  c #2C3239",
"O  c #282E34",
"+  c #443A4A",
"@  c #3C3844",
"#  c #1E1C20",
"$  c #24252A",
"%  c #505B5E",
"&  c #5D6567",
"*  c #636A6B",
"=  c #7B727C",
"-  c #6D6A72",
";  c #354048",
":  c #879289",
">  c #ADAFA4",
",  c #C0BDB1",
"<  c #D8DACC",
"1  c #E4E8DA",
"2  c #383440",
"3  c #E0E3D5",
"4  c #403646",
"5  c #413848",
"6  c #6E6873",
"7  c #9AA096",
"8  c #C8C7BA",
"9  c #CCCBBF",
"0  c #6B6C71",
"q  c #34353F",
"w  c #606169",
"e  c #9D9797",
"r  c #A39F9B",
"t  c #584C62",
"y  c #68636F",
"u  c #414451",
"i  c #A29EA0",
"p  c #7F7D84",
"a  c #6F7879",
"s  c #90918E",
"d  c #67656C",
"f  c #27292F",
"g  c #373943",
"h  c #4C4859",
"j  c #7B7980",
"k  c #484756",
"l  c #B3B8AD",
"z  c #8C8E8E",
"x  c #1C1D21",
"c  c #B5B4B2",
"v  c #AAB0A9",
"b  c #61676B",
"n  c #696A70",
"m  c #A9A49F",
"M  c #C4C2B6",
"N  c #9A9D97",
"B  c #596465",
"V  c #65686E",
"C  c #827D82",
"Z  c #92938E",
"A  c #707472",
"S  c #777B7C",
"D  c #A9A9A6",
"F  c #BDC2B6",
"G  c #4B5459",
"H  c #32373B",
"J  c #212025",
"K  c #CBD0C3",
"L  c #444E54",
"P  c #323B43",
"I  c #898C89",
"U  c #818983",
"Y  c #1B1C20",
"T  c #87808A",
"R  c #878C89",
"E  c #6C7773",
"W  c #B1B3AF",
"Q  c #A6AFA4",
"!  c #DCDED1",
"~  c #B8BAB2",
"^  c #6F6574",
"/  c #463F4F",
"(  c #C5CBBF",
")  c #867E85",
"_  c #5B565E",
"`  c #585D62",
"'  c #949C92",
"]  c #707876",
"[  c #39414B",
"{  c #7C827F",
"}  c #7B7A7C",
"|  c #9C9A97",
" . c #454554",
".. c #3D434E",
"X. c #2F373E",
"o. c #858A85",
"O. c #ABAFA4",
"+. c #5B5965",
"@. c #78787C",
"#. c #4E4E5B",
"$. c #17171A",
"%. c #575862",
"&. c #131113",
/* pixels */
"                                                                                                    ",
"  . . . . . . . . . . . . . . . . . . . . . . . . . . . . . . . . . . . . . . . . . . . . . . . .   ",
"  .                   .                         .                         .                   X .   ",
"  .                   .                   o o o O + + + @ o               .                   X .   ",
"  .                   .               # $ % & * * = = = - % $ #           .                   X .   ",
"  .                   .               $ ; : > , , , , , > : ; $           .                   X .   ",
"  .                   .             o % : , < 1 1 1 1 1 < , : % o         .                   X .   ",
"  . . . . . . . . . . . . . . . . . 2 - > < 3 1 1 1 1 1 3 < > - 2 . . . . . . . . . . . . . . . .   ",
"  .     X . X                     X 4 = , 1 1 1 1 1 1 1 1 1 , = 5                       X . X X .   ",
"  .       .                         4 = , 1 1 1 1 1 1 1 1 1 , = +                         .   X .   ",
"  .       .                         4 = , , < 1 1 1 1 1 < , , = +                         .   X .   ",
"  .       .                         4 6 7 , 8 9 9 9 9 9 8 , , 0 q                         .   X .   ",
"  . . . . . . . . . . . . . . . . . 2 w : > > > > > e e r > , * O . . . . . . . . . . . . . . . .   ",
"  .                       X . X     o % : : : : : : t t y : , * o               X .           X .   ",
"  .                         .       o u t : : : : t , < 1 1 , = +                 .           X .   ",
"  .                         .       o u t y y y y e < i p a , s d +               .           X .   ",
"  .                         .       f g h t t t t , < j k u 9 l z t               .           X .   ",
"  . . . . . . . . . . . . . . . . . . x ; t t t t , , * u t 1 1 c t . . . . . . . . . . . . . . .   ",
"  .               X . X                   ; h h ; : , , 9 1 1 1 v ;     X X                   X .   ",
"  .                 .                     ; b n h % = m M 9 9 9 N ;                           X .   ",
"  .                 .                     ; B V t u h C e e Z Z A o                           X .   ",
"  .                 .                     ; ; u t t ; h t t ; ; o                             X .   ",
"  . . . . . . . . . . . . . . . . . . . . ; Z > : ; t S : : : % O . . . . . . . . . . . . . . . .   ",
"  .                   X X                 h D F : h u G % % % H J         X . X               X .   ",
"  .                                   # $ t c K 7 y * L P o o J             .                 X .   ",
"  .                                   $ ; t c < , : , * o                   .                 X .   ",
"  .                                   $ ; : > > : t 1 1 c t                 .                 X .   ",
"  . . . . . . . . . . . . . . . . . . x ; y I U % S 1 1 c t . . . . . . . . . . . . . . . . . . .   ",
"  .   X . X                       . Y H % T R E ; : < 3 W h X .                       X . X   X .   ",
"  .     .                         . o % : 1 Q E ; : , < v ;   .                         .     X .   ",
"  .     .                         . + T 1 1 9 e t t t t h ;   .                         .     X .   ",
"  .     .                         . + T 1 1 ! ~ S u e ^ / $   .                         .     X .   ",
"  . . . . . . . . . . . . . . . . . 2 j < < 3 ( : u e ) _ x . . . . . . . . . . . . . . . . . . .   ",
"  .                     X           o * , , < ( : t t e Z ;                 . X               X .   ",
"  .                                   $ ; : > e t , : : S t                 .                 X .   ",
"  .                                   # $ % & ` u < > ' ] u                 .                 X .   ",
"  .                                       o P [ u ( e { B ;                 .                 X .   ",
"  . . . . . . . . . . . . . . . . . . . . . O u t : t u ; ; . . . . . . . . . . . . . . . . . . .   ",
"  .           . X                       X ; h = , : ; h h ;       X . X                       X .   ",
"  .           .                     f o o ; } | 7 y h  ...; o o f   .                         X .   ",
"  .           .                   $ X.; ; ; o.O.Q = t u [ u u [ X.$ .                         X .   ",
"  .           .                   ; ; ; ; ; E Q 1 , t u u t t u ; ; .                         X .   ",
"  . . . . . . . . . . . . . . x ; ; ; ; ; t S 7 , 1 : y h ; ; ; ; ; ; x . . . . . . . . . . . . .   ",
"  .                         X x ; ; ; ; ; u +.@.7 Q y #...; ; ; ; ; ; $           X X         X .   ",
"  .                           $.o ; ; ; ; ;  .%.E E h ..; ; ; ; ; ; o J                       X .   ",
"  .                           .   ; ; ; ; ; ; ; ; ; ; ; ; ; ; ; ; ;                           X .   ",
"  .                           .       $ ; ; ; ; ; ; ; ; ; ; ; $                               X .   ",
"  . . . . . . . . . . . . . . . . . . &.x x x x x x x x x x x &.. . . . . . . . . . . . . . . . .   ",
"                                                                                                    ",
"                                                                                                    "
};
