/* XPM */
static char *f2d595298c294325c6e688fab7cd58c242c4hofJkpOfwBgR[] = {
/* columns rows colors chars-per-pixel */
"50 50 170 2 ",
"   c #000000",
".  c #0B0603",
"X  c #0D0906",
"o  c #0E0B0D",
"O  c #100703",
"+  c #110803",
"@  c #1A0E07",
"#  c #130F0E",
"$  c #1E0C0D",
"%  c #1F1107",
"&  c #16120F",
"*  c #1A130C",
"=  c #110F11",
"-  c #141214",
";  c #1A1614",
":  c #171917",
">  c #1B171B",
",  c #1D1B1C",
"<  c #210F0F",
"1  c #24140A",
"2  c #29160B",
"3  c #2E1A0D",
"4  c #321C0D",
"5  c #261A11",
"6  c #201F1F",
"7  c #331E10",
"8  c #391E11",
"9  c #37200F",
"0  c #372112",
"q  c #3C2212",
"w  c #362418",
"e  c #1F1D20",
"r  c #221F22",
"t  c #242223",
"y  c #292725",
"u  c #282628",
"i  c #2B2B2C",
"p  c #2E312F",
"a  c #2E2F30",
"s  c #312F30",
"d  c #2F3231",
"f  c #323433",
"g  c #383A37",
"h  c #373938",
"j  c #3C3F3C",
"k  c #432614",
"l  c #482716",
"z  c #452915",
"x  c #4C2B16",
"c  c #4F2C18",
"v  c #502E17",
"b  c #512D19",
"n  c #592E1E",
"m  c #523117",
"M  c #55321A",
"N  c #5D361D",
"B  c #5D391B",
"V  c #60371F",
"C  c #623B1D",
"Z  c #683E1F",
"A  c #4B3828",
"S  c #5C3421",
"D  c #5C3F2B",
"F  c #433E35",
"G  c #453F38",
"H  c #663622",
"J  c #623B24",
"K  c #6B3B22",
"L  c #723B26",
"P  c #783E28",
"I  c #3E413E",
"U  c #6A401F",
"Y  c #464036",
"T  c #40413F",
"R  c #6D4221",
"E  c #724424",
"W  c #7A4427",
"Q  c #754923",
"!  c #794B25",
"~  c #7D4329",
"^  c #7F4828",
"/  c #6E4F35",
"(  c #725233",
")  c #3E4341",
"_  c #424442",
"`  c #454946",
"'  c #4D4C45",
"]  c #474B49",
"[  c #4B4E4A",
"{  c #534C43",
"}  c #4C514D",
"|  c #50544F",
" . c #525651",
".. c #555A55",
"X. c #5A5C55",
"o. c #5A5E59",
"O. c #5D625C",
"+. c #6D6555",
"@. c #61655E",
"#. c #6B675D",
"$. c #636661",
"%. c #666A63",
"&. c #696D65",
"*. c #6A6F69",
"=. c #6D7067",
"-. c #6D726A",
";. c #71756C",
":. c #75796E",
">. c #787B6F",
",. c #737770",
"<. c #767A72",
"1. c #797F76",
"2. c #7A7E75",
"3. c #7A7D73",
"4. c #7C7F78",
"5. c #874B2B",
"6. c #82442B",
"7. c #904D2F",
"8. c #8C522C",
"9. c #92532E",
"0. c #8D5330",
"q. c #965231",
"w. c #9C5C33",
"e. c #A45E35",
"r. c #97612F",
"t. c #A56236",
"y. c #A86337",
"u. c #A26835",
"i. c #A76B35",
"p. c #A96D36",
"a. c #A66439",
"s. c #A9643B",
"d. c #AA6539",
"f. c #AE683C",
"g. c #AE693B",
"h. c #B36C3D",
"j. c #B96F3F",
"k. c #AC733A",
"l. c #B4733C",
"z. c #B9723F",
"x. c #B6793C",
"c. c #BA7B3E",
"v. c #BD7340",
"b. c #7A8077",
"n. c #7D8176",
"m. c #7E8176",
"M. c #7D8076",
"N. c #7B8178",
"B. c #798078",
"V. c #7F8379",
"C. c #7D827A",
"Z. c #7E8279",
"A. c #808175",
"S. c #808379",
"D. c #828378",
"F. c #81847A",
"G. c #83867A",
"H. c #83877F",
"J. c #81867D",
"K. c #81847A",
"L. c #868A7F",
"P. c #84887E",
"I. c #84887F",
"U. c #838880",
"Y. c #848A81",
"T. c #868B81",
"R. c #8A8F84",
"E. c #898D84",
"W. c #8C9187",
"Q. c #93988F",
/* pixels */
"> > > > > > > > > > > > > > > > > > > > > > > , > > > > > > > > > > > > > > > > > > > > e > > > > > ",
"> o o o o o o # o o # o o o # o o o o o o - t , , t 6 t 6 o o o o # o o o o o o o # o o o o o o o > ",
"> o > > > > > > > > > o > > > > > > > > , $.H.H.H.U.H.H.1.j , > > > > > > o > > > > > > > > > - o > ",
"> # > > > > > > > > > o > > > > > > > > i R.m.H.m.V.<.-.=.o.> > > > > > > # > > > > > > > > > - o > ",
"> o > > > > > > > > > o > > > > > > > > i 4.3.4.B.U.;.%.;._ > > > > > > > o > > > > > > > > > - o > ",
"> o > > > > > > > > > # > > > > > > > > > @.<.3.B.k.;.*.&.a > > > > > > > o > > > > > > > > > - o > ",
"> o > > > > > > > > > o > > > > > > > r t  .:.4.,.B.;.;.-.` u > > > > > > o > > > > > > > > > = o 6 ",
"> o o o o # o o o o o # t ] ; o = r T *.=.] =.<.*.B.<.1.%.&.B.O.T > o > ..t o o o o o o # o o o o > ",
"> o > > - o - > > > > r =.N. .> ) b.B.-.;.) %.:.,.,.,.1.o.1.,.*.V.&.u %.R.;.t > > > > > - o - - o > ",
"> o > > > o > > > > r 4.b.<.-.O.T.b.b.<.,...-.Z.B.B.4.<. .C.,.-.;.1.O.W.P.H.&.t > > > > > o > - o > ",
"> o > > > o > > > r ,.,.<.1.,.<. .b.:.b.-.....@.*.*.*.%.| C.<.,.;.} 4.T.P.D.m.&.> > > > > o > - o > ",
"> = > > > o > > > 6 } ,.;.<.<.,.-.O.-.#.3 1 % . o           ..*.$.<.G.K.m.H.D.} > > > > > o > - o > ",
"> o o o o o o o o o e ..*.B.,.1.,.' A k 9 3 2 .               : j U.4.4.B.B.o.> o o o o o o o o o > ",
"> o > > > 6 > > > > f ,.o.,.-.,.[ U B m q 3 2 .                 o ] -.1.B.o.,.h - o > > > > 6 = o > ",
"> o > > > > > > > r 3.U.*.o.*.` E 0.U m q 4 1 . .                   h O.} B.U.*.r o > > > > > - o > ",
"> o > > > > > > > } s.B.B.o.) / v.w.R M z 4 1 .                       f U.U.W.s.' o > > > > > - o > ",
"> o > > > > > > 6 @.:.b.3.+.R u.a.a.J S x 4 2 +                          .m.G.b.@.; : > > > > - o > ",
"> o o o o o # o  .O.%.;.;.Y s.x.v.w.R S l 4 2 .                         - *.;.@.O.T o # o o o o o > ",
"> o > > > > > t =.>.V.$.+.w.g.x.v.a.R B z 4 2 O .                         I O.b.;.O.r > > > 6 - o > ",
"> # > > > > > s :.:.;.:./ z.z.c.v.t.R S k 2 1 O                           , -.;.:.=.i > > > > - o > ",
"> o > > > > > i >.=.;.=.( v.v.x.v.a.C m k 3 1 .                           : *.;.;.>.i > > > > = = > ",
"> o > > > > > I %.&.&.{ E v.a.k.z.d.R N z 7 5 X .                           I &.&.#.I > > > > = o > ",
"> o o o # I ..1.C.C.V.F Q g.d.k.v.d.R N z w y ; X                           d <.<.<.1.%...6 # # o > ",
"> o > > > O.;.<.*.=.<.Y ! g.g.l.v.g.R N z 5 u t X                           d ,.b.D.4.;.&.i > = o > ",
"> o > > > -.;.4.4.;.=.Y ! j.j.x.v.t.R B z ; t 6 X                           d C.B.U.s.>.*.i > - o > ",
"> o > > > %.;.4.D.D.;.Y ! z.v.x.v.t.C M q t : : X                           a U.,.B.U.4.*.s > - o > ",
"> o 6 > > o.=.,.<.<.<.T ! z.v.x.j.w.C m 9 y > & .                           d E.B.,.4.-.$.s > - o > ",
"> o o o o ..$.$.@.%.*.j ! z.v.x.h.w.B c 4 t , * X                           d 1.*.%.$.$.X.r o o o > ",
"> o > - o T ` ` ) ) } j ! z.v.p.g.y.C l 7 - * 5 .                           d ) ) ) ) ) _ i > - = > ",
"> o > > o 6 6 _ U.Q.U.) Q z.v.i.h.y.V l 4 1 3 1 .                           d U.Q.,.) e o > > - o > ",
"> o > > o > > T B.W.>.F Q j.v.p.h.y.B l 0 w 3 % .                           a E.,.,.) e o > > - o > ",
"> o > > o > > T ,.U.k.F Q z.j.i.h.y.C x q 7 2 @ .                           a U.,.,.) e o > > - o > ",
"> o # o o o o j =.s.,.j E v.v.k.v.g.Z v k 4 1 O                             p 1.%.&.j o o o o = o > ",
"> o > > > > > T ,.,.%.) ! v.v.p.v.y.Z v k 2 1 . .                           p ;.%.O.j > > > > = o > ",
"> o > > > > > j $.$...) R l.v.i.j.w.V x k 2 1 O                             d %.$.@.j > > > > - o > ",
"> o > > e } %.;.,.*.*.h E v.v.k.y.w.B x k 4 1 .                             d *.*.-.$.%.o.a > - = > ",
"> o > > > O.3.,.3.m.;.F ! v.v.k.e.7.C l k 7 1 .                             i C.*.*.,.U.*.i > - o > ",
"> o o $ o $.,.4.S.>.;.F Q z.j.u.e.5.M l q 4 1                               d V.$.B.U.B.-.u o # o > ",
"> o > > > *.-.K.D.;.=.F Q h.g.i.q.5.b k 8 4 %                               p R.-.1.k.B.*.a > = o > ",
"> o > > > *.<.4.m.:.*.F ! d.e.r.7.~ v k 4 2 .                               p T.C.B.4.;.-.s > - o > ",
"> # > > > O.3.3.3.&.%.F ! w.9.8.6.K x q 2                                   p b.C.<.V.<.O.i > - o > ",
"> o > > > } O.o. .X...F E 9.8.! W H c 8           o .   . o .   . o . . . . d } ....o.] ) i > - o > ",
"> o o o # > , T =.1.=.F E 9.6.E L H w X   . o o o o . o o o . o o . o . o . f =.1.-.) > : - o o o > ",
"> o > > > > > T =.<.1.F Q 9.P Z K x X   o o o   o X o o o . o o o o o o o = f T.-.-.) > > > > - o > ",
"> o > > > > > T :.:.>.g R 6.L Z b = o o o o o o o o o o X o o = o = = = = = f T.<.,.T > > > > - o > ",
"> o > > > > > _ 4.;.>.F R ! P N o o o o o o o o o = = = o = = - = = - = - - f 4.,.<._ > > > > - o > ",
"> o > > > > > _ :.=.%.F E ~ K X o o o = o = = = - : : : o - - > e - : : > > f ;.1.D.` > > e > = o > ",
"> o # o # o o j *.@.O.F B S - X o o o o o o o o = - - = - = - - o - - = - - f *.;.<.T o o o o o o > ",
"> > > > > > > f I ) j i & - 1 $ = - > : : e e e e r u u r r r r e e e e e r a j ) ) h > > > > > > > ",
"> > > > > > > > > > > > > > > > > > > > > > > > > > > > > > > > e e e - > > > e > > e > > > > > > > "
};
