/* XPM */
static char *_92a286699354ea6a1bf65d248327555nMiWs0nbpWOxLMzA[] = {
/* columns rows colors chars-per-pixel */
"50 50 194 2 ",
"   c #0F0B0D",
".  c #141114",
"X  c #181617",
"o  c #1B171B",
"O  c #1E1C1E",
"+  c #1F1C20",
"@  c #201E20",
"#  c #242325",
"$  c #2B2B2C",
"%  c #272628",
"&  c #312F30",
"*  c #2F3031",
"=  c #333333",
"-  c #3C3D3C",
";  c #3B3A35",
":  c #3A352C",
">  c #4B2915",
",  c #542E18",
"<  c #4A321F",
"1  c #5D331B",
"2  c #5F381F",
"3  c #61341E",
"4  c #653B1C",
"5  c #4A3728",
"6  c #593A28",
"7  c #443D35",
"8  c #493F38",
"9  c #403F3B",
"0  c #673521",
"q  c #6A3722",
"w  c #6D3A23",
"e  c #673D23",
"r  c #733C25",
"t  c #793F27",
"y  c #763C28",
"u  c #7A3F29",
"i  c #3E403E",
"p  c #6C411F",
"a  c #474036",
"s  c #4C4337",
"d  c #41413E",
"f  c #4C4439",
"g  c #53483A",
"h  c #574537",
"j  c #6E4024",
"k  c #6E462E",
"l  c #734622",
"z  c #7B4226",
"x  c #794D24",
"c  c #7D432A",
"v  c #754429",
"b  c #654533",
"n  c #6C4933",
"m  c #754A34",
"M  c #794D37",
"N  c #7B5239",
"B  c #3F4240",
"V  c #414441",
"C  c #454A46",
"Z  c #4B4946",
"A  c #474D49",
"S  c #4B4E4A",
"D  c #484745",
"F  c #504A43",
"G  c #4D514D",
"H  c #51534D",
"J  c #59564C",
"K  c #4F5551",
"L  c #515652",
"P  c #545954",
"I  c #5B5C57",
"U  c #5A5D59",
"Y  c #775840",
"T  c #635E54",
"R  c #5D615C",
"E  c #61645D",
"W  c #6E685D",
"Q  c #706A5E",
"!  c #636761",
"~  c #666A63",
"^  c #696D65",
"/  c #6A6E69",
"(  c #676D68",
")  c #776E69",
"_  c #6D7067",
"`  c #6E726A",
"'  c #71756C",
"]  c #75796E",
"[  c #797B6F",
"{  c #757A71",
"}  c #7A7D73",
"|  c #727771",
" . c #83442B",
".. c #88472D",
"X. c #844B2B",
"o. c #8B4C2E",
"O. c #814927",
"+. c #904E2E",
"@. c #8C522D",
"#. c #805227",
"$. c #93552E",
"%. c #985D2F",
"&. c #8B4531",
"*. c #8C4D31",
"=. c #854330",
"-. c #944D32",
";. c #9C4F38",
":. c #80533C",
">. c #965231",
",. c #9C5434",
"<. c #965B32",
"1. c #9C5C34",
"2. c #9D5B38",
"3. c #A25537",
"4. c #A45A36",
"5. c #A35B39",
"6. c #AA5D3A",
"7. c #A6563E",
"8. c #94612E",
"9. c #9B6330",
"0. c #996535",
"q. c #A56536",
"w. c #AA6537",
"e. c #A56A33",
"r. c #A96D36",
"t. c #A56439",
"y. c #AC633B",
"u. c #AD6B3A",
"i. c #B3653C",
"p. c #B36C3D",
"a. c #BA6C3F",
"s. c #B5723C",
"d. c #B9733E",
"f. c #BC7E3E",
"g. c #8E5F42",
"h. c #925D43",
"j. c #AB5840",
"k. c #B35D43",
"l. c #9A6246",
"z. c #9E7457",
"x. c #B46A41",
"c. c #BD6E42",
"v. c #BA6444",
"b. c #BD7341",
"n. c #BD7941",
"m. c #807974",
"M. c #C46E48",
"N. c #C37543",
"B. c #C47A44",
"V. c #CA7D47",
"C. c #CD7E48",
"Z. c #CA7548",
"A. c #D17C4D",
"S. c #7D8176",
"D. c #7E8279",
"F. c #82857A",
"G. c #81857B",
"H. c #85897E",
"J. c #84897F",
"K. c #C58243",
"L. c #CC8247",
"P. c #CB8B47",
"I. c #CE8149",
"U. c #CE8D48",
"Y. c #D2844B",
"T. c #D68A4C",
"R. c #D98C4E",
"E. c #CE9248",
"W. c #D5944B",
"Q. c #DB914E",
"!. c #D5984A",
"~. c #D98750",
"^. c #DC8C51",
"/. c #DD9251",
"(. c #E29A4F",
"). c #E08F51",
"_. c #E29454",
"`. c #E59A54",
"'. c #E89D57",
"]. c #E79858",
"[. c #EB9D5A",
"{. c #848582",
"}. c #858B82",
"|. c #898F85",
" X c #898E85",
".X c #8C8580",
"XX c #8B9187",
"oX c #8D928B",
"OX c #93988F",
"+X c #989897",
"@X c #A89F98",
"#X c #BDADA3",
"$X c #CBAD9B",
"%X c #D8C7BC",
/* pixels */
"o o o o o o o o o o o o o o o o o o o o o o o o o o o o o o o o o o o o o o o o o o o o o o o o o o ",
"o                                                                                                 o ",
"o   o o o o o o o o o   o o o o o o o o o + $ $ @ $ $ $ $ o o o o o o o o   o o o o o o o o o .   o ",
"o   o o o o o o o o o   o o o o o o o o X P |.|.}.|.}.|.D.= o o o o o o o   o o o o o o o o o .   o ",
"o   o o o o o o o o o   o o o o o o o o $ XXD.J.F.D.} ' ` R + o o o o o o   o o o o o o o o o .   o ",
"o   o o o o o o o o o   o o o o o o o o $ S.{ S.} D.' ~ | B o o o o o o o   o o o o o o o o o .   o ",
"o   o o o o o o o o o   o o o o o o o o X ! { [ [ F.| ( ( * o o o o o o o   o o o o o o o o o .   o ",
"o                                     . O P { S.] S.` ` _ i O                                     o ",
"o   o o .   . o o o o o # B X o o . $ | ` A ` { ( S.} } ^ ~ {.R = o o o A @ o o o o o o .   . .   o ",
"o   o o o   o o o o o @ R S.G X i ` D.{ ' V ( | ' ] ] } U } ' | D.U # I  X! @ o o o o o o   o .   o ",
"o   o o o   o o o o % } S.{ ' R J.S.{ { ] P ` D.S.G.} ] L D.| ` ' } E  XH.F.^ # o o o o o   o .   o ",
"o   o o o   o o o + / { { { ' ' G D.S.{ ` R R _ ] ' ] ( L D.{ ' ' H ] H.H.H.} E o o o o o   o .   o ",
"o                 . P ' ] { [ { ( ! ` W 6 n N g.N l.l.Y M h Q / ^ / H.H.G.F.F.H                   o ",
"o   o o o o o o o o @ L S.[ ` S.S.A 5 x $.2.2.j.*.x.x.j.u.2.*.b S J.H.} F.S.P @ .   o o o o o .   o ",
"o   o o o o o o o o = ( R ' ' } P 6 0.k.0.k.x.x.<.C.c.c.c.x.x.c m E ' } D.I ' & o   o o o o o .   o ",
"o   o o o o o o o # { D.^ R ` Z e $.t.x.x.c.N.B.t./.~.I.C.B.n.X.x.v f R L } F.^ #   o o o o o .   o ",
"o   o o o o o o o V S.] { G 9 k 1.<.u.B.B.V.I.I.u.].T.Y.Y.L.I.<.n.x.m -  XF.}.} d   o o o o o .   o ",
"o               X ! ] } } U e 5.u.t.b.Y.L.Y.T.Y.s.[./.~.~.T.~.0.I.b.x.k E D.G.} E X               o ",
"o   o o o o o o L G ~ ] } 5 2.y.b.u.B.T.I.R.R.R.s.[.Q.~.T.Y.^.t.~.V.b.u.b ' [ ( H C o o o o o .   o ",
"o   o o o o o @ _ } | ~ T l t.b.B.b.K.~.T.R.R.R.s.'.~.U.T.Y.T.e.^.I.B.x.1.J I ' ] P @ o o o o .   o ",
"o   o o o o o * ] [ ' ] b %.p.C.L.n.W.T.T.Q.T.T.s.'.T.Y.Y.Y.R.e.W.L.V.b.x.b ' ' ] _ $ X o o o .   o ",
"o   o o o o o $ } _ ] ( N u.n.I.I.n.!.~.^.^.Y.Y.u.'.Y.Y.Y.I.R.e.R.I.V.n.s.0._ ' ' [ $ o o o o .   o ",
"o             = ~ ^ W J <.b.B.Y.T.B.W.T.Q.T.Y.Y.s.'.T.I.Y.Y.R.e.W.I.I.B.x.0.P ~ ^ ~ =             o ",
"o   o o o V R {.oXoX|.a w.I.Y.R.^.K.W.^.R.Y.Y.T.u.`.~.T.T.Q./.e.Q.~.~.U.n.x.a D.D.} {.' I % o .   o ",
"o   o o o R ` ] ( ' ] s a.I.I.T.^.K./.^.T.T.T.T.d.`.R.R.R.R.Q.r._.Y.T.T.I.u.f ] } G.} ` _ $ o .   o ",
"o   o o o ` ` S.} ' ' s d.I.Y.R.~.B.!.^.U.Y.I.Y.d./.R.Q.T.R.R.r._.Y.I.T.Y.n.g D.} G.D.} _ $ o .   o ",
"o   o o o _ ' S.F.F.] s d.I.I.R.Y.V.!.^.Y.I.I.Y.s.!.R._.R.T.R.r._.Y.I.Y.T.L.g {.] } } } _ $ o .   o ",
"o         R _ { ] } ] s d.I.I.T.T.B.W.^.I.Y.Y.I.s.(.T.R.R.Y.Y.r./.Y.I.Y.Y.L.g |.} { } ' ~ %       o ",
"o   o .   P ~ ~ ~ ( ' s b.V.C.~.Y.B.W.~.I.I.I.I.s.(.Y.T.).Y.Y.r._.I.I.I.I.U.g F.' / ( E U $ o .   o ",
"o   o o   C G G G G S s s.I.L.T.I.B.W.~.L.L.I.I.q.].Y.Y.R.Y.Y.r.^.I.L.Y.I.P.s G S G G S C $ o .   o ",
"o   o o   o o V  XOXS.s p.Y.I.Y.I.b.U.~.C.V.C.C.w.`.I.Y.T.C.A.9.R.L.C.I.C.K.f F.oX{ i o   o o .   o ",
"o   o o   o o V F. X} s b.I.I.Y.I.n.U.T.I.I.I.Y.e._.C.I.Y.C.Y.9.T.V.B.C.C.K.s oX' ` d o   o o .   o ",
"o             i ] F.[ s d.Y.I.Y.Y.B.E.Y.I.Y.Y.V.p.).V.L.Y.V.Y.e.T.N.d.d.N.K.g J.{ ' i             o ",
"o   o o o o o B _ S.[ s d.I.I.Y.L.N.W.A.L.L.Y.V.a.Q.V.I.V.V.Y.e.T.w.$X%X$Xn.g } ( ( B o o o o .   o ",
"o   o o o o o V ' ] _ s s.V.I.I.Y.a.E.A.V.V.Y.C.r.).Z.Y.V.V.T.8.~.4 I {.) K.g | E E B o o o o .   o ",
"o   o o o o o - E E P s d.I.V.I.I.d.E.Y.Y.Y.Y.Y.w.).I.L.Y.Y.Y.8.Y.b / OX.X0.a ~ E E i o o o o .   o ",
"o   o o o C L P P P G s d.V.C.L.L.d.E.Y.Y.Y.C.T.s.(.L.Y.Y.Y.~.8.f.@XI D +Xz.8 K P P K P L * o .   o ",
"o         ! D.F.H.H.S.s d.L.V.V.V.d.U.T.Y.Y.Y.T.w._.C.C.Y.C.Y.8.d.m.D Z S Y 8 {.} } } F._ %       o ",
"o   o o o ! ' S.F.[ ] s p.V.C.V.V.a.K.~.V.Y.C.C.%.).C.V.C.C.Y.%.s.E ` ; {.n 8 { ! ] J.S._ $ o .   o ",
"o   o o o ( ` D.F.' _ s p.V.V.Z.N.w.K.A.C.C.V.T.%.~.C.V.V.C.V.#.B.< ~ {.Z 0 8  X_ } F.S._ $ o .   o ",
"o   o o o ~ [ S.S.] _ f p.B.M.b.a.4.f.A.Z.V.Z.V.%.).N.N.V.Z.Z.x n.$.X.#.<.r.7 }.D.S.S.` _ = o .   o ",
"o   o o o E } S.S._ ~ s i.N.M.i.i.,.f.Z.c.B.N.Z.+.).a.a.N.a.b.x d.a.N.i.d.s.7 D.S.[ F.| R $ o .   o ",
"o         K E E R U P s 6.M.y.i.w.,.s.M.a.N.a.N.@.Y.i.w.p.p.i.l a.6.y.,.4.r.7 P R R R L C %       o ",
"o   o o o # # V ' D.' s ,.6.4.4.4.+.s.M.w.a.i.a.O.C.w.4.w.6.y.l y.$.1.X.o.q.7 _ {.{ V # @ + o .   o ",
"o   o o o o o V ^ { } 8 +.3.,.,.3...s.i.6.i.6.i.O.Z.4.,.4.4.6.p 6.X.X. .o.%.7 H.' ` V o o o o .   o ",
"o   o o o o o V { ] [ 8 ..-.-.-.-.z %.6.,.3.3.6.O.a.>.>.-.>.-.4 ,.t z z  .$.8 J.S.] B o o o o .   o ",
"o   o o o o o V } ' [ 7  . . ... .r >.;...-.>.-.u 6.......&.&.1 o.r t z l O.; S.` ] V o o o o .   o ",
"o             d { ' ^ 7 y t t  .t 4 ..-. .&.-...y 6. .t u  .c ,  .r r y r z ; ' S.S.V             o ",
"o o o o o o o B _ ! ! 7 r r r y w 3  .&.u u .. .w j.r r r u r > t r w r q z 7 ' } G.V o o o o o o o ",
"o o o o o o o ; C A B 9 0 0 0 q 3 1 q y q q r q 0 =.0 0 0 q 0 > q 1 1 3 1 3 : C S G - o o o o o o o "
};
