/* XPM */
static char *_270d158ca234da09c28575b7f802bcdH6c4RF7lS6Y9h1J0[] = {
/* columns rows colors chars-per-pixel */
"50 50 222 2 ",
"   c #020203",
".  c #090604",
"X  c #030B04",
"o  c #0D0A06",
"O  c #090709",
"+  c #0F0B0D",
"@  c #010A0E",
"#  c #140D0B",
"$  c #170D09",
"%  c #051306",
"&  c #0A1B0B",
"*  c #18130C",
"=  c #110F12",
"-  c #141114",
";  c #191312",
":  c #1B171B",
">  c #1D191A",
",  c #0E0F13",
"<  c #23140A",
"1  c #271B14",
"2  c #331C16",
"3  c #07260E",
"4  c #143818",
"5  c #0C370C",
"6  c #362218",
"7  c #362B1B",
"8  c #122938",
"9  c #352C24",
"0  c #0F1822",
"q  c #44261C",
"w  c #492A1F",
"e  c #442819",
"r  c #532F1F",
"t  c #57351C",
"y  c #473819",
"u  c #6C3D1E",
"i  c #64391C",
"p  c #723F1E",
"a  c #4A2B20",
"s  c #513A29",
"d  c #683B22",
"f  c #713F20",
"g  c #0B531D",
"h  c #0E5C1E",
"j  c #17571F",
"k  c #124712",
"l  c #354719",
"z  c #164A22",
"x  c #165D20",
"c  c #0F6C23",
"v  c #0D6422",
"b  c #186B23",
"n  c #0F7B29",
"m  c #0E7426",
"M  c #127427",
"N  c #127D29",
"B  c #187928",
"V  c #2D6B26",
"C  c #336D27",
"Z  c #42451B",
"A  c #505106",
"S  c #73401F",
"D  c #7A4C1F",
"F  c #415621",
"G  c #5B5523",
"H  c #4E4D21",
"J  c #694625",
"K  c #734221",
"L  c #794927",
"P  c #635D23",
"I  c #7B542C",
"U  c #684C33",
"Y  c #785836",
"T  c #4D6726",
"R  c #113B4D",
"E  c #213642",
"W  c #224C66",
"Q  c #534A4A",
"!  c #664C49",
"~  c #6B5A47",
"^  c #41607F",
"/  c #7C7B7A",
"(  c #80531F",
")  c #83542B",
"_  c #865833",
"`  c #804F27",
"'  c #8E613C",
"]  c #946838",
"[  c #99743C",
"{  c #936A2A",
"}  c #A57D3E",
"|  c #A6783C",
" . c #9A751A",
".. c #896A49",
"X. c #936743",
"o. c #9C7D40",
"O. c #9A724A",
"+. c #9F7551",
"@. c #896E52",
"#. c #A57C42",
"$. c #A67A41",
"%. c #A27854",
"&. c #957D60",
"*. c #1E8729",
"=. c #168129",
"-. c #258A29",
";. c #3D9A27",
":. c #329629",
">. c #339829",
",. c #389827",
"<. c #2D9027",
"1. c #3DA129",
"2. c #54A11D",
"3. c #449F2A",
"4. c #419C27",
"5. c #418622",
"6. c #7D8338",
"7. c #40A229",
"8. c #49A22B",
"9. c #4DAA26",
"0. c #73985A",
"q. c #64874B",
"w. c #50AA7C",
"e. c #879518",
"r. c #B8A210",
"t. c #98813F",
"y. c #87853A",
"u. c #BD9D2F",
"i. c #A4813E",
"p. c #AA843D",
"a. c #BC9D33",
"s. c #BEA22F",
"d. c #BAA138",
"f. c #B09912",
"g. c #C5AB2A",
"h. c #CEBA22",
"j. c #C9B623",
"k. c #D1BC22",
"l. c #D3B52A",
"z. c #D3B236",
"x. c #B6D70D",
"c. c #D4C01F",
"v. c #DBD415",
"b. c #E3D515",
"n. c #E5D913",
"m. c #E8DB16",
"M. c #E8E504",
"N. c #F3ED09",
"B. c #F9F605",
"V. c #FDFB02",
"C. c #F4F604",
"Z. c #E6F416",
"A. c #F2EB11",
"S. c #DAC324",
"D. c #E6CD29",
"F. c #EBD328",
"G. c #EBCC33",
"H. c #AA8248",
"J. c #AC865A",
"K. c #B48D57",
"L. c #BC904A",
"P. c #9C8467",
"I. c #B58F6A",
"U. c #BA9469",
"Y. c #BB9771",
"T. c #A29578",
"R. c #C08E43",
"E. c #C69849",
"W. c #C09551",
"Q. c #D7A74B",
"!. c #DDAB51",
"~. c #D9A750",
"^. c #CAA24C",
"/. c #E1B04F",
"(. c #E0AE52",
"). c #C19E79",
"_. c #C7A478",
"`. c #365499",
"'. c #38508D",
"]. c #3E5CA0",
"[. c #405EA1",
"{. c #6A7BA7",
"}. c #687FB5",
"|. c #0180AD",
" X c #6F82AE",
".X c #7BAE8A",
"XX c #54CEAE",
"oX c #09B5F4",
"OX c #82B48B",
"+X c #9AA482",
"@X c #B0A185",
"#X c #A5AF83",
"$X c #97B3A9",
"%X c #CEAC84",
"&X c #C7A682",
"*X c #D5B48A",
"=X c #D2B186",
"-X c #DCBC94",
";X c #D5B891",
":X c #C7B195",
">X c #C5BEB5",
",X c #DFC294",
"<X c #E2C39A",
"1X c #E4C89A",
"2X c #E9CDA3",
"3X c #E7C9A0",
"4X c #E4D4AB",
"5X c #F4DCB5",
"6X c #EFD7B1",
"7X c #FDE5BC",
"8X c #FFE8BF",
"9X c #BCC3D8",
"0X c #C0C9DE",
"qX c #E9DECD",
"wX c #FDE9C6",
"eX c #FFF3DD",
"rX c #FBEDD7",
"tX c #DEE0E3",
"yX c #EEF2EE",
"uX c #F9F7F6",
"iX c #EEECEA",
"pX c #C6CFE1",
/* pixels */
": : : : : : : : : : : : : : : : : : : = = 4 z z z z z z z 4 , , : : : : : : : : : : : : : : : : : : ",
": + + + + + + + + + # + + + + + + + + O   g n n n n n =.n h X   O + + + + + + + + = + + + + = + + : ",
": # : : : : : : : : : + : : : : : - = & 3 b *.*.*.*.*.*.*.b 3 3 - - : : : + : : : : : : : : : - + : ",
": + : : : : : : : : : + : : : : :     g n >.1.1.1.1.7.7.7.:.n g     : : : = : : : : : : : : : - + : ",
": + : : : : : : : : : + : : : - - 3 3 v N -.>.>.>.:.>.>.>.<.n v 3 3 - = : + : : : : : : : : : - = : ",
": # : : : : : : : : : = : : : . @ c m N N N N N N N N N N N n n m m X   - + : : : : : : : : : - + : ",
": + : : : : : : : : : + : - - X % n N =.=.=.N =.N =.N =.=.=.=.N =.N % X - + : : : : : : : : : - + : ",
": + + + + + + = + + + + O   X v m ,.1.1.1.1.1.1.1.1.1.1.1.1.1.1.1.1.M c X   O # + # + + + + + + + : ",
": + : : - + - : : : : : -   X M =.3.8.9.9.9.9.9.8.8.8.9.9.9.7.8.7.3.=.M X   = : : : : : - + - - + : ",
": + : : : + : : : : : : -   % ,.3.t.t.v.C.C.C.h.o.o.[ j.C.v.t.o.H.t.3.;.%   = : : : : : : + : - + : ",
": + : : : + : : : : : : #   % ,.8.o.i.n.V.V.B.k.} #.#.k.V.n.H.i.#.#.3.;.% X - : : : : : : + : - + : ",
": + : : : + : : : : - O 3 g h [ y.#.i.v.V.c.a.k.n.g.#.h.V.B.m.c.#.$.y.y.j g 3 O - : : : : + : - + : ",
": = + + = + = * ; ; = . 3 M B O.#.#.p.m.N.g.#.k.B.c.i.c.B.V.B.m.} } } o.B M 3   = ; ; ; = # o + + : ",
": + : : : : s Y ..P.@.r t H P E.^.b.n.G.G.D.b.k.s.k.n.F.G.z.g.g.b.b.i.| P G t t @.&...Y s > : - + : ",
": + : : : : U #.K.=XY.K S p L ^./.B.V.G.!.A.B.c.$.h.V.F./.^.$.a.V.V.} | K f p K I.=XK.H.U > : - + : ",
": + : : : : r _ J.1X-XY.J.] { D.F.k.h.D.F.S.h.u.$.k.V.D.E.W.U.W.l.k.k.h.{ ' J.Y.;X2XK._ s : : - + : ",
": + : : : : w p %.5X8XwX1XH.p.N.B.p.#.n.V.s.$.$.$.l.V.c.#.K.*X_.#.H.C.B.p.H.1X8X8X7X%.f w : : - + : ",
": + + + + + 1 q U I._.3X=X' { j.k.E.E.m.V.b.h.g.W.a.r.a.W.&X2X*X#.H.F.F.p.H.=X2X_.Y.U e 1 + # + + : ",
": + : : : : : : 6 f X.=XY.L D | $.~./.A.V.V.V.F.!.| S %.=X<X8X1X#.#.!.!.#.#._.*XX.f 6 : : : : - + : ",
": # : : : : : : 6 r ~ $X+X . .[ [ (.(.F.A.m.b.l.R.| ' I.-X2X8X2XK.L.L.R.a.d.#X$X~ t 6 : : : : - + : ",
": + : : : : : : : : R oXXXZ.M.D L ~./././.L.$.] K %.*X2X7X7X8X6X=X%XI ( N.Z.XXoXW : : : : : : - + : ",
": + : : : : : : : : R |.w.Z.M.) ` | [ L.E.} ] ] X.I.<X2X6X2X;X&XP.P.) ) C.C.w.|.R : : : : : : - # : ",
": + + + + + + + + # O @ A M.C.p.[ # o Y #.) L %.*X3X5X2X-XY.` t o # [ p.N.M.A @ , + + + = + + + + : ",
": + : : : : : : : : =   A M.N.p.[ 1 : Y o.) f %.;X2XwX2X=XI.L t > > ] i.A.M.A   , : : : : : : - + : ",
": + : : : : : : : : -   y ^.Q.` I tXtX X'.! L I.7X5X8X).` ! '.{.tXtXY L Q.Q.y   - : : : : : 1 - + : ",
": + : : : : : : : : -   7 L.E.K L uXuX X`.! ) Y.8XwX7X)._ ! `.}.yXuXI K E.E.y   = : : : : : : - + : ",
": + : : : : : : : : : : ; # o . = 6XwX{.`.9XuXrX7X7X7XrXuX9X`.{.5X5X; . . o + : : : : : : : : = + : ",
": = + + + + + # + + + + o       # 4X5X{.].0XuXeX7X8X8XeXuXpX].{.7X6X-       O # + + + + + , + = + : ",
": = : - + - : : : : : : : - =   o J.U.:X>XqXrXwX7X8X8XwXrXqX>X:XW.I.#   = = : : : : : - + = : - + : ",
": + : : + : : : : : : : : : ; X o [ H.<X5X5X7X7X7X7X7X7X7X7X7X<X} [ o X : : : : : : : : + : : = + : ",
": + : : + : : : : : : : - O X g j I I X.%.%X<X<X<X<X1X<X<X%XO.X.) I j g O O - : : : : : + : : = + : ",
": + : : + : : : : : : : -   % c M J K S f U.*X*X*X*X*X*X*XY.K S p J M m @   = : : : : : = : : = = : ",
": + + + + + + + + + # . , 8 E OXOXZ Z F F q.0.0.0.0.0.0.0.q.T F Z Z OXOX6 1 + O + + = + + + + + = : ",
": + : : : : : : : : =   0 W '.iXyXj k c N N n n n n n n n n n c k k iXyXs w $   = : : : : : : = + : ",
": + : : : : : : : = $ 2 9 Q Q &./ Z l b N n n n n n n N M n B b Z Z / / d t e 6 ; = = : : : : - + : ",
": + : : : : : : =   < f f f d , . u S V n N N n n n n n n n n V S u O . i p p K <   = : : : : - + : ",
": + : : : : : : -   1 ' X.+.X.& & G P T V V V 5.2.2.2.5.V V V C P P & & X.O.X.' 2   - : : : : = + : ",
": + + + + + + + X   9 &X-X5X4Xl k ;.4.P K K K f.C.C.V.r.D J D P 4.;.k k 4X7X<X%Xs   O + = + + + + : ",
": + : : : : : + = O 9 &.P.@X+X4 5 <.;.T P G G e.x.x.x.e.G G P T ,.:.5 5 T.@XT.&.9 @ - : : : 1 - + : ",
": + : : : : : = : : : o o + +   X M N :.3.*.N N =.=.B =.N *.4.>.N M X   o + . . , : : : : : : - + : ",
": + : : : : : + : : -             c m :.1.*.N =.=.N =.=.N *.1.:.m c             = : : : : : : - + : ",
": + : : : : : + : : : : : ; -       X h =.:.1.;.1.1.1.1.1.:.=.v % X     - : : : : : : : : : : - + : ",
": + + + + + = + + + + + # o + O   .   g m <.;.;.;.;.;.;.;.<.M g .     . o + = + + + + + + = = + + : ",
": + : : : : : : : : : : -   O i u w q $ X X X X X X . X X X   # 6 w d u o   = : : = - : : : : = + : ",
": + : : : : : : : : : : =   O u f r a $                       $ a a f p .   = : : : : : : : : = + : ",
": + : : : : : : : : : : -   O u f d d q 2 o   O - = - O   o 2 q d d f u o   = : : : : : : : : = + : ",
": + : : : : : : : : : : =   . i f f f r a #   + : : : +   # a r p p p u .   = : : : : : : : : - + : ",
": + + + + + + + = + + + # O o < < < < $ $ o O + + + + o O + # $ < < < * + + + + + + + + + + # = + : ",
": : : : : : : : : : : : : : :             - : : : : : : : -             : : : : : : : : : : : : : : ",
": : : : 1 : : : : : : : : : : , + + + , + - : : : : : : : - + , + + + + : : : : : : : : : : : : : : "
};
