/* XPM */
static char *d25e7c4bdc334ddfc1061690ea1832b4VGqClB8NXrjQvDxZ[] = {
/* columns rows colors chars-per-pixel */
"50 50 205 2 ",
"   c #010102",
".  c #0D0706",
"X  c #030C04",
"o  c #0E0906",
"O  c #0F0B0D",
"+  c #08080B",
"@  c #130B06",
"#  c #160E0A",
"$  c #031206",
"%  c #0A1907",
"&  c #05140A",
"*  c #08190A",
"=  c #1C130B",
"-  c #14110C",
";  c #100E10",
":  c #151215",
">  c #1B171B",
",  c #1B1B1A",
"<  c #1D1A13",
"1  c #0C141C",
"2  c #24190E",
"3  c #281D18",
"4  c #391F19",
"5  c #0A290A",
"6  c #13260C",
"7  c #0B340B",
"8  c #0C3B0C",
"9  c #19241C",
"0  c #1A291E",
"q  c #122C14",
"w  c #2D270D",
"e  c #343402",
"r  c #363B02",
"t  c #2B241D",
"y  c #2A2216",
"u  c #392019",
"i  c #332A15",
"p  c #22321E",
"a  c #353112",
"s  c #131920",
"d  c #002534",
"f  c #2E2620",
"g  c #352B23",
"h  c #312722",
"j  c #3C342C",
"k  c #3F3F3F",
"l  c #433217",
"z  c #5E361D",
"x  c #64391C",
"c  c #6D3D1E",
"v  c #61361B",
"b  c #703E1D",
"n  c #4C2A20",
"m  c #522E20",
"M  c #463928",
"N  c #6F3F20",
"B  c #773E20",
"V  c #0D420D",
"C  c #0D480F",
"Z  c #0E4412",
"A  c #0D4B11",
"S  c #154D11",
"D  c #0C581B",
"F  c #155212",
"G  c #175A17",
"H  c #16410D",
"J  c #29501E",
"K  c #0E611E",
"L  c #2C6E1C",
"P  c #1C5D21",
"I  c #0D6421",
"U  c #0E6B23",
"Y  c #106A23",
"T  c #0F7225",
"R  c #0D7B29",
"E  c #117225",
"W  c #107C29",
"Q  c #1E7228",
"!  c #24772A",
"~  c #3A7F23",
"^  c #424200",
"/  c #75421F",
"(  c #5E4D22",
")  c #674726",
"_  c #744120",
"`  c #7C4B28",
"'  c #72562D",
"]  c #7A5833",
"[  c #315374",
"{  c #6E6B4E",
"}  c #885B1D",
"|  c #936D19",
" . c #835127",
".. c #865A36",
"X. c #875836",
"o. c #876637",
"O. c #946E3C",
"+. c #9B743A",
"@. c #A2793E",
"#. c #926440",
"$. c #A17643",
"%. c #A47A41",
"&. c #AB7F46",
"*. c #14812A",
"=. c #198329",
"-. c #358622",
";. c #358A23",
":. c #388D24",
">. c #399424",
",. c #369B29",
"<. c #3A9E29",
"1. c #399626",
"2. c #2F8D23",
"3. c #3DA329",
"4. c #499528",
"5. c #489928",
"6. c #41A429",
"7. c #44AA2A",
"8. c #5AAB2A",
"9. c #71B02A",
"0. c #3D9551",
"q. c #92883D",
"w. c #AA8638",
"e. c #B18E37",
"r. c #B18D39",
"t. c #B79537",
"y. c #ADAC04",
"u. c #C1A52D",
"i. c #D1D100",
"p. c #DDDC04",
"a. c #CDD30E",
"s. c #E8DF0C",
"d. c #EADF11",
"f. c #E3D713",
"g. c #D6EA08",
"h. c #DEF007",
"j. c #EDE50D",
"k. c #F2ED07",
"l. c yellow",
"z. c #FAF40C",
"x. c #F6F206",
"c. c #ECE112",
"v. c #F5EB12",
"b. c #FCF818",
"n. c #85835E",
"m. c #AC8144",
"M. c #AB824B",
"N. c #B58A44",
"B. c #B18A54",
"V. c #B5904E",
"C. c #B1A946",
"Z. c #98887C",
"A. c #AD956F",
"S. c #B09573",
"D. c #BA9D79",
"F. c #B6A277",
"G. c #C59447",
"H. c #D19E4C",
"J. c #C9A847",
"K. c #D4A34F",
"L. c #D6A451",
"P. c #DEAB54",
"I. c #D8A553",
"U. c #DEB444",
"Y. c #E5BA47",
"T. c #E1AE53",
"R. c #E5B155",
"E. c #C9A67C",
"W. c #2D4F9C",
"Q. c #384D8A",
"!. c #4C6A86",
"~. c #4C6299",
"^. c #0086B6",
"/. c #0097CB",
"(. c #00B0F2",
"). c #AE9D8F",
"_. c #BAB88B",
"`. c #CAAA83",
"'. c #D5B48C",
"]. c #D8B78D",
"[. c #DBB98F",
"{. c #DCBC93",
"}. c #D7BB90",
"|. c #CBB795",
" X c #BAC6B3",
".X c #DAC79B",
"XX c #CFC095",
"oX c #D7C9A1",
"OX c #DBD5A6",
"+X c #E6CDA6",
"@X c #EAD4AB",
"#X c #F6DDB5",
"$X c #F9DEB5",
"%X c #F4D8AD",
"&X c #FEE5BC",
"*X c #FFE8BF",
"=X c #FAE0B5",
"-X c #CDD4D0",
";X c #FFE9C2",
":X c #FFE6C1",
">X c #FFF1C7",
",X c #E3E8F2",
"<X c white",
"1X c #FFFAF2",
"2X c #E7E7E6",
/* pixels */
"> > > > > > > > > > > > > > > > > 9 0 p p p p p p p 9 < 0 0 0 y 3 g h > > > > > > > > > > > > > > > ",
"> O O O O O O O O O O O O O O O O Y R ,.6.6.6.6.6.6.F V T R ! b ` %.O.O O O ; O O O O O O O O O O > ",
"> O > > > > > > > > > O , 9 9 9 9 Q W <.6.6.6.6.6.6.F 8 E *.! } } r.@.g g 2 f > > > > > > > > : O > ",
"> O > > > > > > > > > O 0 W W W R <.6.6.6.6.6.6.6.6.F V :.6.8.l.l.l.x.T.T.N.%.g > > > > > > > : O > ",
"> O > > > > > > > > > - 0 W W =.*.<.6.6.6.6.6.6.>.>.G F 4.8.9.k.x.j.c.I.I.r.e.M h f > > > > > : O > ",
"> O > > > > > > > > , 8 A W W 1.<.6.6.6.6.6.6.<.F F 2.>.C.J.J.U.Y.e.r.m.&.f.k.w.o.o.> > > > > : O > ",
"> O > > > > > > > > , V A W W 6.6.6.6.6.6.6.6.1.V V ,.3.C.T.T.P.I.$.@.$.$.d.l.e.$.#.> > > > > : O > ",
"> O O O O O O O 7 7 Z Y W W W W =.<.6.6.6.6.5.,.V V ,.3.m.N.N.v.v.%.m.K.L.t.t.f.c.d.o.' ; O O O O > ",
"> O > > : O : > 8 Z A W W R W W R 3.6.6.6.7.6.<.V V 2.3.q.%.e.l.x.@.m.T.T.N.$.j.l.x.%.o.: O : ; O > ",
"> O > > > O > > 8 Z A W W W W W W G F F F F F G >.>.a.h.e.q.e.l.z.`.E. .` G.L.v.l.k.` N > O > : O > ",
"> O > > > O > > 8 V A W W W W W R A V V H V 8 A 3.6.h.l.t.$.e.l.z.'.E.b c G.T.z.l.k.N N > O > : O > ",
"> ; > > > O , , Z A F W W W W W W A C C C C Z A <.<.h.l.t.%.r.k.v.'.`.` ` N.H.d.k.j.N z > O > : ; > ",
"> O O O O O 8 V E W W W W R W W W W W W W E V A R R g.l.t.w.@.@.M.'.'.'.}.X./ +.%.+.: O O O O O O > ",
"> O > > > > 8 Z E W W W W E E E E R W E E Y A F ! ! a.j.u.t.e.M.B.{.{.'.'.] z ..o.] > , > > > : O > ",
"> O > > > > 8 H E W W W Y V V V V Y W A 8 A *.=.&.%.%.$.d.l.b.'.}.&X&X'.{.g   : > O > > > > > : O > ",
"> O > > > > 8 Z T W W W E V V V V W W A Z A W Q %.&.%.$.s.l.b.'.}.;X&X'.{.g   : > O > > > > > : O > ",
"> O > > > > X X U W T A V X $ 8 V A A U T U A S / ` +.$.c.l.b.#X+Xg j X.X.2   : > O > > > > > : O > ",
"> O O O O O     U R T V 7   X 8 V V V U R T V H / / +.%.c.l.b.:X@X  O _ _ =   . O O O O O O O O O > ",
"> O > > > >     V A A V 7     8 C _..XOXOXoXF.S./ _ G.L.t.e.V.>X&X-X-XQ.Q.Z.D.t   + > > > > > : O > ",
"> O > > > > +   7 C V V 7   X 8 V oX&X*X*X=X'.E./ / G.R.N.@.B.*X&X<X,XW.W.).'.t     > > > > > : O > ",
"> O > > > >     V A Z 8 5   X 7 8 XX%X=X*X=X}.`.x v H.Y.m.+.M.:X;X<X,XW.W.).].t     > > > > > : O > ",
"> O > > > >     U W I   + > >     o.@.+X*X*X*X+X    i.l.| / ..:X:X<X,XW.W.).].t     > > > > > : O > ",
"> O O O O O     K T D     ; O     ' o.[.@X@X-X X    i.l.| c ..:X:X1X2X~.~.Z.S.3   + O O O O O O O > ",
"> O > > > > +   7 V 8     > >         ] w.n.(.(.    i.l.| / ..;X&X&X=X].{.g   O > > > > > > > : O > ",
"> O > > > > O + 5 8 5 + . > > e e w y ' o.{ /.^.    i.l.| b X.$X$X$X@XA.S.f   > > > > > > > > : O > ",
"> O > > > > : : X X $ : : > a y.i.t.N.l 2 < d d     i.l.| N  ..X{.{.`.t f , O > > > > > > > > : O > ",
"> O > > > > > >     + > > > a p.l.Y.T.i             i.l.| b X.].'.'.D.    ; O > > > > > > > > : O > ",
"> O ; O O O O O O O O O O O : w w 2 2 7 8 V U I     t.Y.l . - J J < < O O O O O O O O O O O O O O > ",
"> O > : O : > > > > > > > > > > >     7 V C W U     N.R.i   X V 8   + > > > > > > > > : O : > : O > ",
"> O > > O > > > > > > > > > > > >     D R I $ % x x 3 = G Y U T E Y D     : > > > > > > O > > : O > ",
"> O > > O > > > > > > > > > > > >     K *.I   . / / @   I W W W W W U     : > > > > > > O > > : O > ",
"> O > > O > > > > > > > > > > > >     I R U   o ( ) 6 & D I I W W W E e e 2 : > > > > > O > > : O > ",
"> O O O O O O O O O O O O O O O O     I W Y   $ R R W *.&   $ R W W ;.l.l.J   o O O O O O O O O ; > ",
"> O > > > > > > > > > > : > > > : & & I ! P   & 0.0.0.0.q   $ ! Q Q ~ g.g.e   O > > > > > > > : O > ",
"> O > > > > > > > > > > > > :     U *.( b v   > <X<X<X<Xk + @ _ _ N ) T R 5   : > > > > > > > : O > ",
"> O > > > > > > > > > > > > > +   U R ) B v   3 <X<X<X<XM   @ _ N N ) R *.*   : > > > > > > > : O > ",
"> O > > > > > > > > > > > > >     U R :.5.~   + !.!.!.!.s   % 5.4.5.5.<.3.6   : > > > > > > > : O > ",
"> O O O O O O O O O O O + O O     I R ,.6.;.  + [ [ [ Q.1   % 7.6.6.6.6.7.6   o O O O O O O O O O > ",
"> O > > 3 > > O : > > > > > > : > & $ -.7.;.  . ) ) N ) =   $ *.=.6.>.% % : : > > > > > > > > : O > ",
"> O > > > > > O > > > > > > > > >     -.7.:.  . c b N N #   $ *.=.7.>.    : , , > > > > > > > : O > ",
"> O > > > > > ; > > > > > > > > > + + L -.L   @ ..X.#.#.2   $ I I -.L + + : > > > > > > > > > : O > ",
"> @ > > > > > O > > > > > > > > > > >         = '.}.#X;Xj             > > > > > > > > > > > > : O > ",
"> O O ; O O O O O O O O O O O O O O O +       ; S.S.|.oXj . . . o @ @ O . O O O O O O O O O O O O > ",
"> O > > > > > > > > > > > > : O ; > > > > :             4 n n n m / x     : > > > : : > > > > : O > ",
"> O > > > > > > > > > > > > > O > > > > > :             4 n n n m _ v     : > > > > > > > > > : O > ",
"> O > > > > > > > > > > > > > ; > > > > > > > :         4 n n N / / v     : > > > > > > > > > : O > ",
"> ; > > > > > > > > > > > > > O > > > > > > > >         4 n m _ / / x     : > > > > > > > > > : O > ",
"> O O O ; O O O O O O O O O O O O O O O O O O O o O + O . @ . @ @ @ @ O . O O O O O O O O O O O ; > ",
"> > > > > > > > > > > > > > > > > > > > > > > > > > > > +             > > > > > > > > > > > > > > > ",
"> > > > > > > > > > > > > > > > > > > > > > > > > > > > : : : : : : : , > > > > > > > > > > > > > > "
};
