/* XPM */
static char *bcd65d4b462748d9dcf03e08a52d1deasIucoazGqtIad8pZ[] = {
/* columns rows colors chars-per-pixel */
"50 50 221 2 ",
"   c #020202",
".  c #090606",
"X  c #030B04",
"o  c #0C0B04",
"O  c #090709",
"+  c #0F0B0D",
"@  c #130D0E",
"#  c #130D06",
"$  c #061607",
"%  c #141208",
"&  c #010D12",
"*  c #120F12",
"=  c #141114",
"-  c #1B171B",
";  c #1B1B1B",
":  c #1A1511",
">  c #23170B",
",  c #261511",
"<  c #221C1D",
"1  c #271A15",
"2  c #361E14",
"3  c #371E0F",
"4  c #06250C",
"5  c #0B2C0B",
"6  c #0A260C",
"7  c #122D0C",
"8  c #0D3E0D",
"9  c #0A350C",
"0  c #14330D",
"q  c #0D2C13",
"w  c #1D201C",
"e  c #172615",
"r  c #073B14",
"t  c #103710",
"y  c #382616",
"u  c #30310D",
"i  c #183920",
"p  c #393026",
"a  c #3D3926",
"s  c #362E28",
"d  c #48281F",
"f  c #46291B",
"g  c #532E17",
"h  c #49361A",
"j  c #56331B",
"k  c #6B3C1E",
"l  c #673E1E",
"z  c #723F1F",
"x  c #4B2B20",
"c  c #473625",
"v  c #583629",
"b  c #502D20",
"n  c #603620",
"m  c #0E430E",
"M  c #11450E",
"N  c #0D4511",
"B  c #0E4911",
"V  c #0A4C1A",
"C  c #0E5215",
"Z  c #0E5B1B",
"A  c #0C541B",
"S  c #195A15",
"D  c #2A491C",
"F  c #0F631E",
"G  c #1E6115",
"H  c #226A1A",
"J  c #26721B",
"K  c #29761C",
"L  c #155D25",
"P  c #154922",
"I  c #225E25",
"U  c #2E542D",
"Y  c #0F6B22",
"T  c #116D23",
"R  c #156923",
"E  c #0F7326",
"W  c #0F7A29",
"Q  c #107627",
"!  c #107728",
"~  c #107B29",
"^  c #197926",
"/  c #296626",
"(  c #2D7326",
")  c #50480D",
"_  c #76451E",
"`  c #74491F",
"'  c #6F431F",
"]  c #797D03",
"[  c #5B452C",
"{  c #435E2A",
"}  c #4D4335",
"|  c #4E4E35",
" . c #6C4321",
".. c #734221",
"X. c #7B4A25",
"o. c #645823",
"O. c #73572C",
"+. c #755734",
"@. c #6B5131",
"#. c #516B31",
"$. c #756F2E",
"%. c #023346",
"&. c #3C754A",
"*. c #564D50",
"=. c #6A5A46",
"-. c #66564A",
";. c #625D5D",
":. c #727B4C",
">. c #776A56",
",. c #7A7A7A",
"<. c #586253",
"1. c #875C3A",
"2. c #82552D",
"3. c #8B6439",
"4. c #956A37",
"5. c #97743A",
"6. c #806721",
"7. c #A57D3E",
"8. c #AC7A3B",
"9. c #A07F27",
"0. c #9B764A",
"q. c #9E7450",
"w. c #896F4F",
"e. c #A47B41",
"r. c #A87F45",
"t. c #897B72",
"y. c #2E801F",
"u. c #1C8429",
"i. c #228528",
"p. c #338921",
"a. c #358922",
"s. c #299129",
"d. c #3B9426",
"f. c #319629",
"g. c #3B9B28",
"h. c #3EA128",
"j. c #76BE1E",
"k. c #449D28",
"l. c #5E8F2D",
"z. c #41A429",
"x. c #47A527",
"c. c #65A720",
"v. c #619028",
"b. c #79C11B",
"n. c #54A165",
"m. c #878701",
"M. c #8A8808",
"N. c #918F0D",
"B. c #B69C11",
"V. c #919232",
"C. c #AB853D",
"Z. c #B2942D",
"A. c #91A83E",
"S. c #BEA12F",
"D. c #ACB638",
"F. c #90BA18",
"G. c #CAB80E",
"H. c #C0A32E",
"J. c #CDB627",
"K. c #D1BC21",
"L. c #CAA934",
"P. c #AAD111",
"I. c #90C214",
"U. c #D6C41B",
"Y. c #D8CB0F",
"T. c #E6D815",
"R. c #FDFD01",
"E. c #F7F506",
"W. c #F1EF08",
"Q. c #DAC62B",
"!. c #ECD42A",
"~. c #E8C932",
"^. c #FAF036",
"/. c #AE8749",
"(. c #B88A45",
"). c #BE9249",
"_. c #B58F57",
"`. c #8F8C65",
"'. c #86AE71",
"]. c #BFA17D",
"[. c #A98D62",
"{. c #C29548",
"}. c #C08E45",
"|. c #D5A54D",
" X c #DDAB52",
".X c #D7A651",
"XX c #CFA740",
"oX c #E2B14F",
"OX c #C29E69",
"+X c #C9A679",
"@X c #D7B87F",
"#X c #E0CA52",
"$X c #37569C",
"%X c #69759A",
"&X c #4462A5",
"*X c #06A9DF",
"=X c #12B6EE",
"-X c #8F8A88",
";X c #A99990",
":X c #B2B4B2",
">X c #CCAC84",
",X c #D1AF87",
"<X c #D5B48B",
"1X c #D9B88D",
"2X c #D7B689",
"3X c #D8BA91",
"4X c #CEB087",
"5X c #DFC699",
"6X c #E4C79E",
"7X c #CBC2BF",
"8X c #E4CBA2",
"9X c #F4DDB5",
"0X c #EDD6AD",
"qX c #FCE4BB",
"wX c #FAE4B9",
"eX c #AFD4CA",
"rX c #CCC2C0",
"tX c #FFE8C3",
"yX c #EFF2F8",
"uX c #FBFCF9",
"iX c #F9F2E6",
/* pixels */
"- - - - - - - - - - - - - - ; < < < < ; w ; : ; w w w w w w w ; - - - - - - - - - - - - - - - - - - ",
"- + + + + + + + + + + + + + : 4.5.z l I E C m H d.d.d.g.d.d.^ Q q + + + + + + + + + + + + * + + + - ",
"- @ - - - - - - - - < @ < < < 5.7._ X.( W F m J h.z.z.z.z.z.i.~ i - ; ; ; + - - - - - - - - - = + - ",
"- + - - - - - - - - v +.3.e.C.T.T.Y.Y.c.s.H m J g.z.z.z.z.z.g.f.^ L L R P * - - - - - - - - - = + - ",
"- + - - - - - - - - [ 5.(.oXoXE.R.R.R.j.g.K 8 J z.z.z.z.z.z.z.h.u.~ ~ ~ L + - - - - - - - - - = + - ",
"- @ - - - - - - c @.V.K.L.{.{.J.K.!.!.D.A.l.K J K K z.z.z.z.z.z.f.s.u.~ Y q e ; - - - - - - - * + - ",
"- + - - - - - < @.5.K.R.T.C.e.e.e..X X X XA.h.K N S h.z.z.z.z.z.z.z.s.~ Y m t ; - - - - - - - * + - ",
"- + + + + * h [ Z.K.K.K.J.{.}.e.C.~.!.XX).A.h.K M S h.z.z.z.z.z.f.s.u.W E Z C 5 q * + + + + + + + - ",
"- + - - = @ +.7.U.R.K.r.(. X.Xr.C.W.E.H./.v.z.J M G h.z.z.z.z.z.u.u.W W W W Y N 8 ; - - = + = = + - ",
"- + - - - @ O.4.Y.R.U./.(.}.(._._.E.E.H.7.V.j.d.G H p.p.p.p.p.p.^ W W W ~ ~ Y B 8 ; - - - + - = + - ",
"- + - - - * j X.G.R.!. X}.z 2.>X@XE.R.H.7.K.R.P.x.p.B m B m m M F u.~ ~ ~ ~ E m 8 ; - - - @ - = + - ",
"- + - - - @ j  .G.E.!..X}.X.2.>X1XW.W.S.e.K.R.P.x.p.m m m m B B T ~ ~ ~ ~ W E B N w ; - - + - = + - ",
"- + + + + + * , O.C.4._ 3.+X>X<X<X/.C.8.8.K.R.I.u.T m M E ! ! ! ~ ~ ~ ~ ~ ~ ~ ~ E m 8 $ @ + + + + < ",
"- + - - - - - < @.5.+.k 1.,X<X<X2X/.e./.C.K.E.F.i.T B C Q Q ! ~ ~ ! ! ! ~ ~ ~ ~ ! B m e - - - = + - ",
"- + - - - - - - p c y > v 4X3X0X0X+X+XQ.T.K.S.C.5.#.T F C C Q ! Z C C C Z ~ ~ ~ ! B 8 e - - - = + - ",
"- @ - - - - - - - - +   c >X<X9X9X1X,X^.R.K.7.r.r.l.^ W B B F ! C 8 M 8 C ! ! ~ ! N 8 e - - - = + - ",
"- + - - - - - - - - *   1 1.1.} | 8X0X^.R.K.r.4.2.o.C C R Y C C B m 5 X 5 C Z Q Q 4 $ % - - - = + - ",
"- + + + + + + + + + .   > z k o , 0XtX^.R.K.e.1._ j M N Q ~ C m m M 4   $ 8 C E E X   X + + + + + - ",
"- + - - - - - - * O p =.-.*.*.%X-XwXqX#XK.L.{.4._ X.:.:.'.'.'.`.U B 4   X m m Z Z X   * - - - = + < ",
"- + - - - - - - O   -.3X;X$X&XyXuXtXqXOXr.{. X8.X.3.,X1XqXqXqX9X#.m 4   $ m m m 8     * - - - = + - ",
"- + - - - - - - O   =.1X;X$X&XyXuXtXwX_.4.Z.~.9.g +.1X5XqXqX8X5X{ 5 $ O $ 5 9 C C X   * - - - = + - ",
"- + - - - - - - +   =.1X;X$X&XyXuXtXwXq.X.B.R.m.# } 9XwXqXqXOX7.y   * ; =   4 E E X   * - - - = + - ",
"- + + + + + + + O   c [.t.%X%XiXiXtXwXq...B.R.m.# U eXeX5X5X0.@.>   O O O   $ F Y X   O + + + + + - ",
"- + - - - - - - - - = O p >X3XwXqXtXwXq...B.R.m.. %.=X=X`.0.y o     + - =   X m 8     * - - - = + - ",
"- + - - - - - - - - +   s ].>XwXqX9X9Xq._ B.R.m.o %.*X*Xw.5.y # # % % ; =   $ 9 t O   = - - - = + - ",
"- + - - - - - - - - - - = + ; >X3X1X,X3._ B.R.m.o   & & o % 5.|.T.W.M.; - - O     = - - - - - = + - ",
"- + - - - - - - - - - - =   % ].,X,X>Xw._ B.R.m.o         o 5.|.T.R.N.- - - O .   - - - - - - = + - ",
"- + + + + + + * + + @ + + O @ p c { { y > 6.~.$.o $ A A 9 t u u ) ) u + + + + O O + + + + + + + + - ",
"- + - = + = - - - - - - - ; :   X r m $ X @.|.O.o 4 E E B 8 $   = - - - - - - - - - - = + = < = + - ",
"- + - - + - - - - - - - = + + B A Y F A V D h h f y q 9 Y Z $   * - - - - - - - - - - - + - - * + - ",
"- + - - * - - - - - - - =   . T W W ~ u.W N   3 _ g . X E W 4   = - - - - - - - - - - - + - - = + - ",
"- + - - + - - - - - = O u ] v.~ W W W A N r r D { D   X Y E 4   = - - - - - - - - - - - + - - = + - ",
"- + + + + + + + + + O   ) R.W.u.~ ~ W 4   r ~ u.W A X X T ! 6   . @ @ + + + + + + + + + + + * + + - ",
"- + - - - - - - - - +   u P.P.K / ( / 6   U n.n.n.&.X X L L e @ @ = = - - - + = - - - - - - - * + - ",
"- + - - - - - - - - *   4 u.K  .` '  .> O ,.uXyXuX:X+   f x d f @   + - - - + - - - - - - - - = + - ",
"- + - - - - - - - - +   4 u.i.o.o.o.o.>   ;.rXrXrX-X+ O f d a a %   + - - - + - - - - - - - - = + - ",
"- + - - - - - - - - +   7 g.z.k.k.z.k.0   < v v v p .   f d I Q 4   + - - - + - - - - - - - - * + - ",
"- + + + * + + + + + O   7 a.g.z.h.h.g.0   1 x x x 2   . f c I T 4   O + + + + + + + * + @ + + + + - ",
"- + - - - - - + = - - : = $ $ k.k.u.~ 6   2 k ..z g . X d.d.0 X = * + = - - - - - - - - - - - = + - ",
"- + - - - - - + - - - - =   X d.g.~ Q 4   y X...X.b . X d.d.0   * - + - - - - - - - - - - - - = + - ",
"- + - - - - - + - - - - - * = 7 7 6 4 X O =.<X>XOXw.o   7 7 = * = - * - - - - - - - - - - - - * + - ",
"- + - - - - - + - - - - - - - .         O >.9X6X>X`.O       * - - - + - - - - - - - - - - - - = + - ",
"- + + + @ + + + + + + + + . . 3 2 , , , , v ,.>.-.v .   . O + + * + + + + + + + + * + + + @ * + + - ",
"- + - - - - - - - - - - *   . l z x x x x ,             + = - - - - - - - - - - - * * - - - - * + - ",
"- + - - - - - - - - - - =   . k z n n b x ,         + + + - - - - - - - - - - - - - - - - - - * + - ",
"- + - - - - - - - - - - =   . k _ z z j x ,       O - - + - - - - - - - - - - - - - - - - - - = + - ",
"- + - - - - - - - - - - * . # f g g g 2 1 ,   O & + - - + - - - - - - - - - - - - - - - - - - = + - ",
"- + + * + + + + + @ + + @ + + .   . . .     + + + + + + * + + + + + + + + + @ + + + + + + + * + * - ",
"- - - - - - - - - - - - - - -             * - - - - - - - - - - - - - - - - - - - - - - - - - - - - ",
"- - - - - - - - - - - - - - - - - - = - - - - - - - - - - - - - - - - - - - - - - - - - - - - - - - "
};
