/* XPM */
static char *_5e7fb3d6c914074a47cfa84b3ebfd9a16GKWsex6sUkqKYH[] = {
/* columns rows colors chars-per-pixel */
"50 50 222 2 ",
"   c #020302",
".  c #090605",
"X  c #030C04",
"o  c #0A0A05",
"O  c #090709",
"+  c #0F0B0D",
"@  c #060A08",
"#  c #140D0C",
"$  c #140B07",
"%  c #031205",
"&  c #0A1506",
"*  c #061808",
"=  c #15120C",
"-  c #1C130C",
";  c #171604",
":  c #120F12",
">  c #141114",
",  c #1A1311",
"<  c #1B171B",
"1  c #1D181B",
"2  c #131F10",
"3  c #0F1611",
"4  c #23140B",
"5  c #241D0C",
"6  c #221C1C",
"7  c #2A1D17",
"8  c #341D16",
"9  c #381F10",
"0  c #391F0F",
"q  c #06240B",
"w  c #092708",
"e  c #17280C",
"r  c #0A320B",
"t  c #0B3D0B",
"y  c #17340E",
"u  c #073913",
"i  c #153C13",
"p  c #122A10",
"a  c #28221D",
"s  c #2A2118",
"d  c #3A2312",
"f  c #3B241C",
"g  c #372518",
"h  c #2D3F13",
"j  c #303814",
"k  c #2C2423",
"l  c #3C332A",
"z  c #44251D",
"x  c #4A2B1D",
"c  c #472918",
"v  c #5B351F",
"b  c #57351C",
"n  c #552F18",
"m  c #6B3D1E",
"M  c #66391D",
"N  c #713F1F",
"B  c #493827",
"V  c #5B3A22",
"C  c #4C2920",
"Z  c #673D20",
"A  c #0E440E",
"S  c #0E480F",
"D  c #12450E",
"F  c #0A4314",
"G  c #0E4A11",
"H  c #0B4C18",
"J  c #124C11",
"K  c #194B15",
"L  c #154513",
"P  c #0E5316",
"I  c #0D5C1C",
"U  c #0B541B",
"Y  c #135213",
"T  c #1C5E15",
"R  c #115A1B",
"E  c #394718",
"W  c #255618",
"Q  c #204D14",
"!  c #0E611E",
"~  c #1F6116",
"^  c #27731B",
"/  c #2F761E",
"(  c #2A731C",
")  c #0B5625",
"_  c #0F6B22",
"`  c #0E6523",
"'  c #116B22",
"]  c #1E6B24",
"[  c #0F7226",
"{  c #0F7A29",
"}  c #117426",
"|  c #117B29",
" . c #187728",
".. c #336A32",
"X. c #345225",
"o. c #4C5414",
"O. c #73401F",
"+. c #74481E",
"@. c #7F551D",
"#. c #6A441F",
"$. c #797C06",
"%. c #425D24",
"&. c #574D32",
"*. c #6D4421",
"=. c #694725",
"-. c #744221",
";. c #774924",
":. c #645E23",
">. c #6E532C",
",. c #75562F",
"<. c #694D37",
"1. c #7D5E35",
"2. c #745C39",
"3. c #6F5432",
"4. c #587124",
"5. c #466225",
"6. c #7F6137",
"7. c #656B30",
"8. c #22374E",
"9. c #334B5E",
"0. c #0B7974",
"q. c #314D6B",
"w. c #59514A",
"e. c #4D7455",
"r. c #6E734B",
"t. c #48637F",
"y. c #7D7C7B",
"u. c #777162",
"i. c #865929",
"p. c #8B5D30",
"a. c #876335",
"s. c #926E3A",
"d. c #986C37",
"f. c #9C753E",
"g. c #96763C",
"h. c #A77F3F",
"j. c #835F44",
"k. c #967247",
"l. c #9D7552",
"z. c #876E4F",
"x. c #A47B42",
"c. c #A47A55",
"v. c #806A63",
"b. c #1C8529",
"n. c #248C29",
"m. c #2F8825",
"M. c #318621",
"N. c #338C22",
"B. c #2A9129",
"V. c #3D9B27",
"C. c #329629",
"Z. c #349929",
"A. c #3D9F28",
"S. c #369426",
"D. c #3FA229",
"F. c #76BF1D",
"G. c #439C28",
"H. c #508E2B",
"J. c #739035",
"K. c #728F35",
"L. c #41A429",
"P. c #45A427",
"I. c #5C9B26",
"U. c #4AA57B",
"Y. c #B6B506",
"T. c #ACA709",
"R. c #A7803F",
"E. c #AA803E",
"W. c #A0812A",
"Q. c #8EAB30",
"!. c #A6A13E",
"~. c #A6970D",
"^. c #C8AE28",
"/. c #9CCE16",
"(. c #9FD115",
"). c #9BC521",
"_. c #A8C123",
"`. c #D1C218",
"'. c #E5DA13",
"]. c #E1D315",
"[. c #FCFC02",
"{. c #F6F60C",
"}. c #EDEA0D",
"|. c #D9C222",
" X c #9F9D45",
".X c #A98559",
"XX c #B48D5D",
"oX c #A88047",
"OX c #998164",
"+X c #8B9364",
"@X c #B79567",
"#X c #B89A73",
"$X c #AC8D6B",
"%X c #C59747",
"&X c #E2B34C",
"*X c #C29E6A",
"=X c #C1A37D",
"-X c #D6AA50",
";X c #057F85",
":X c #3B7C8D",
">X c #0396B7",
",X c #52C196",
"<X c #57CDA5",
"1X c #04BAF9",
"2X c #01AFE2",
"3X c #AC9D82",
"4X c #B1A487",
"5X c #8CB091",
"6X c #C4AA81",
"7X c #D5B48C",
"8X c #DAB990",
"9X c #B3D2BA",
"0X c #B0C6B6",
"qX c #E3C799",
"wX c #DDCAA0",
"eX c #EAD2A7",
"rX c #F2D7AD",
"tX c #FBE3BA",
"yX c #F6E1B9",
"uX c #FFEEC5",
"iX c #DDE1E6",
"pX c #EFEFEE",
/* pixels */
"< < < < < < < < < < < < < < < < < < < 1 < < < < < < < < < 1 1 < < < < < < < < < < < 1 < < < < < < < ",
"< + + + + + + + + + + + + : + + + + + + + : : , , , , = , # : # + + + + + + + + + + + + + + + + + < ",
"< # < < < < < < < < < + < < < < < < < < 6 v Z ,.,.p.1.6.1.;.v x < < < < < + < < < < < < < < < > + < ",
"< + < < < < < < < < < : < < < < < < < < 6 Z ;.x.x.h.x.oXx.a.-.V a a 6 6 1 + < < < < < < < < < > + < ",
"< + < < < < < < < < < + < < < < < < > + , x.%X^.'.'.].^.x.f.d.g.Y.T.1.3.a + < < < < < < < < < > + < ",
"< + < < < < < < < < < + < < < < < < >   $ -X&X}.[.[.[.`.x.x.h.^.[.'.x.k.k + < < < < < < < < < > + < ",
"< + < < < < < < < < < + < < < < > + 3 Q W Q.Q.).(.(./.Q.K.K.K.Q.[.'.h.f.<.&.a < < 1 < < < < < > + < ",
"< # + + : + + + + + + + + + + + +   * V.P.L.A.D.D.D.D.D.P.P.P.F.[.'.E.f.h.d., + + + + + + + + # + < ",
"< + < < > + > < < < < < < < > + ; Q T ^ ^ ^ ^ ^ ^ ^ ^ ^ ^ ^ ^ H.(._.%X%X`.^.b z 7 < < < > + > > + < ",
"< + < < < + < < < < < < < < >   y V.S.J S S S S D S S D A A A T P.J.-X&X{.{.@.*.f < < < < + < > + < ",
"< + < < < + < < < < < < > > 3 q t M.M.~ T T ~ ~ T T T T T T T ~ M.H. X!.Y.Y.i.;.l > < < < + < > : < ",
"< + < < 1 + < < < < < < +   q [ ' S J V.D.D.D.D.D.D.D.D.D.D.P.N.J Y | } * & d.f.B < < < < + < > + < ",
"< + + + : + + + + : + + O   q [ ! Y T V.L.L.L.L.L.L.L.L.P.P.D.N.Y R [ ! X X 6.a.g + + : + + + + + < ",
"< + < < < < < 1 < < < < +   * F T V.V.L.L.L.L.L.L.L.L.D.D.D.P.D.V.M.S A X   6 k > : < < < < < > + < ",
"< + < < < < < 1 6 7 k k >   * A ~ V.V.L.L.L.L.L.L.L.L.L.P.D.D.D.D.M.G t o X k k a , 1 < < < < > + < ",
"< + < < < < < < 2.k.XX6Xr.t P [ ! J Y V.L.D.L.L.L.L.L.L.D.D.P.N.J Y } _ F L #X=Xc.s.B < < < < > + < ",
"< + < < < < < 6 a.x.*X8Xr.t P { [ S Y V.L.L.L.L.L.L.L.L.L.D.L.S.S P | [ S K =X8XXXh.B 1 1 < < > + < ",
"< + + + $ # z V #XqXeXrXJ.A P { { ! } D.L.L.L.L.D.L.L.L.L.L.D.C.} ! | } S K wXrXeXqXa.n 8 + + + : < ",
"< + < < < 6 v ;.7XtXyXtX+XH P [ | | | D.D.D.L.L.L.L.L.L.L.D.D.C.| | { } S K eXtXtXrXl.Z C < < > + < ",
"1 + < < < < a f j.c.XX*Xr.F P { } P P b.n.D.L.D.L.L.L.L.L.C.n. .R I | [ S J @X@Xc.l.&.g a < < > + < ",
"< + < < < < < < V N p.x.&.u P { ! S G [ | D.D.L.D.D.D.D.L.B.b.! A P { [ D D g.f.i.N f < < < < > + < ",
"< + < < < < < < f C =.p.w.;X0.I P w r [ | n.B.A.D.D.D.Z.B.b.b.! q r I ` 0.;Xa.p.V C 7 < < < < > + < ",
"< # + + # + + + + # f N ,X1X>XD r   X ' | | | C.L.L.D.B.{ b.{ U   % t ) 2X1X<.*.7 : + + + + + : + < ",
"< + < < < < < < < < 8 n e.<XU.Q y   % } | | b.n.C.D.B.b.{ { { )   = j X.,X,XV c 7 < < < < < < > + < ",
"< + < < < < < < < < +   $.{.`.+.n   % [ { | | | b.{ { b.{ { { U   - *.i.}.}.; X > < < < < < < > + < ",
"< + < < < < < < < < > O o.Y.~.i.v   X ! ! | { | { { { { { [ _ H   4 ;.i.T.T.; o > < < < < < < > + < ",
"< + < < 1 < < < < < < < ; o d g.,.X   A Y { { | { { { { { ! F r   5 f.s.; o o < < < < < < < < > + < ",
"< + + + + + + + + + + : o   g s.>..   t A [ { { b.{ { { { I t r   s s.a.&   + + + : + + + + + + + < ",
"< + < > + > < < < < < < < < > + o       % _ { { { | { { { F         o # > < < < < < < > + > < > + < ",
"< : < < + < < < < < < < < > > % X       X _ { { | { { { { F       X X % > > < < < < < < + < < > + < ",
"< + < < + < < < < < < < + O q ` I t r   X A Y _ | { { ! G w   X r F ' ) @ O < < < < < < + < 1 > + < ",
"< + < < + < < < < < > < +   q  .} A t %   t A ! | | { ! A w   % i R | [ % O < < < < < < + < 1 : + < ",
"< + + + + + + : + + O   - 8 w.9X5XK i U U * * I { { { H % r U U A ..9X0X9.8.O   + + + + : + + + + < ",
"< + < 1 < < < < < < #   7 C v.pX0XK G } [ X   U { { [ F   u { _ S e.pXiXt.q.O   : < < < < < < > + < ",
"< + < < < < < 1 : # 4 d C v <.y.u.E E } [ X X F I I I r   u | ] E &.y.y.w.w.d d > + > < < < < > + < ",
"< + < < < < < > O   8 N N N n O 4 O.=. .[ %   r A A A q   u b...*.n   . M -.N *.4   > < < < < > + < ",
"< + < < < < < < O o &.#XXXc.2.e y 4.4.%.%.d 0 2 w * w 5 0 E %.5.4.%.w e k.c.@X$Xl   : < < < < > + < ",
"< + + + + + + + . & v.uXrX7XOXL T D.G.;.O.O.m 4       0 -.N N :.P.N.D W 6X8XtXyX&.  O : + + + + : < ",
"< : < < < < < : + + w.4X$XOXr.r J D.G.:.:.:.:.h y y y E :.:.:.4.G.M.r i z.OX4X3Xl O > < < < < > + < ",
"< + < < < < < + < > > + + O O   y G.L.P.P.P.L.D.V.D.V.D.P.P.G.P.P./ %   : + + + > < < < < < < > + < ",
"< + < < < < < + < < > O       # e / / Z.Z.L.L.L.L.L.L.L.L.A.Z.N./ W - #     O O > < < < < < < > + < ",
"< + < < < < < + < < < < +   # z 8 o * } | D.L.L.L.L.L.L.L.C.| ! % = z 8 O   > < < < < < < < < > + < ",
"< + + + + + + + + + + + O   $ z 8 . & '  .G.G.V.V.V.V.A.G.B. .U . $ z z O   + + + + + + + + + + + < ",
"< + < 1 < < < < < < < < 1 > :   # z C m ;.*.*.5 X X o g ;.-.*.M C 8 O O > > < < < > > < < < < > + < ",
"< + < < < < < < < < < < < 1 :   # z z M m m M 4     O 9 m m m v z 8   O < < < < < < < < < < < > + 1 ",
"< : < < < < < < < < < < < < > + : # - 4 4 4 4 > : : : , 4 4 4 - - # : : < < < < < < < < < < < > + < ",
"< + < < < < < < < < < < < 1 1 + >             : < < < #           O < 1 < < < < < < < < < < < > + < ",
"< + + + + + + + : + + + + + + + $ O O O O O O + + # + + + O O + O + + + : + + + + + + + + + + + + < ",
"< < < < < < < < < < < < < < < < < < < < < < < < < < < < < < < < < < < < < < < < < < < < < < < < < < ",
"< < < < < < < < < < < < < < < < < < < < < < < < < < < < < < < < < < < < < < < < < < < 1 < < < < < < "
};
