/* XPM */
static char *_ca27976fefe4599daf2dcbd23beeb0836fmlkwURWRNLjKe[] = {
/* columns rows colors chars-per-pixel */
"50 50 4 1 ",
"  c #86838C",
". c #5E5A60",
"X c #909090",
"o c #6D6970",
/* pixels */
"     .XX          .XX          .XX          .XX   ",
"     .XX          .XX          .XX          .XX   ",
"     .XX          .XX          .XX          .XX   ",
"ooooooooooo..ooooooooooo..ooooooooooo..ooooooooooo",
"ooooooooooo..ooooooooooo..ooooooooooo..ooooooooooo",
"XX         ..XX         ..X          ..X          ",
"XX         ..XX         ..X          ..X          ",
"XX         ..XX         ..X          ..X          ",
"XX         ..XX         ..X          ..X          ",
"XX         ..XX         ..X          ..X          ",
"ooooo.oooooooooooo.oooooooooooo.oooooooooooo.ooooo",
"ooooo.oooooooooooo.oooooooooooo.oooooooooooo.ooooo",
"     .XX          .XX          .XX          .XX   ",
"     .XX          .XX          .XX          .XX   ",
"     .XX          .XX          .XX          .XX   ",
"     .XX          .XX          .XX          .XX   ",
"     .XX          .XX          .XX          .XX   ",
"ooooooooooo..ooooooooooo..ooooooooooo..ooooooooooo",
"XX         ..XX         ..X          ..X          ",
"XX         ..XX         ..X          ..X          ",
"XX         ..XX         ..X          ..X          ",
"XX         ..XX         ..X          ..X          ",
"XX         ..XX         ..X          ..X          ",
"ooooo.oooooooooooo.oooooooooooo.oooooooooooo.ooooo",
"ooooo.oooooooooooo.oooooooooooo.oooooooooooo.ooooo",
"     .XX          .XX          .XX          .XX   ",
"     .XX          .XX          .XX          .XX   ",
"     .XX          .XX          .XX          .XX   ",
"     .XX          .XX          .XX          .XX   ",
"     .XX          .XX          .XX          .XX   ",
"ooooooooooo..ooooooooooo..ooooooooooo..ooooooooooo",
"ooooooooooo..ooooooooooo..ooooooooooo..ooooooooooo",
"XX         ..XX         ..X          ..X          ",
"XX         ..XX         ..X          ..X          ",
"XX         ..XX         ..X          ..X          ",
"XX         ..XX         ..X          ..X          ",
"XX         ..XX         ..X          ..X          ",
"ooooo.oooooooooooo.oooooooooooo.oooooooooooo.ooooo",
"     .XX          .XX          .XX          .XX   ",
"     .XX          .XX          .XX          .XX   ",
"     .XX          .XX          .XX          .XX   ",
"     .XX          .XX          .XX          .XX   ",
"     .XX          .XX          .XX          .XX   ",
"ooooooooooo..ooooooooooo..ooooooooooo..ooooooooooo",
"ooooooooooo..ooooooooooo..ooooooooooo..ooooooooooo",
"XX         ..XX         ..X          ..X          ",
"XX         ..XX         ..X          ..X          ",
"XX         ..XX         ..X          ..X          ",
"XX         ..XX         ..X          ..X          ",
"XX         ..XX         ..X          ..X          "
};
